<svg id="Layer_1" data-name="Layer 1" xmlns="http://www.w3.org/2000/svg" viewBox="0 0 300 100"><defs><style>.cls-1{fill:#2d2627;}.cls-2{fill:#f30606;}</style></defs><path class="cls-1" d="M175.44,15H163.9a47.75,47.75,0,0,0-12.65,1.68,29.75,29.75,0,0,0-10.7,5.3A26.2,26.2,0,0,0,133,32.25q-2.77,6.38-2.76,15.77v32.9H147V46.1q0-7.23,3.36-10.6c2-1.94,4.86-3,8.61-3.25a28.88,28.88,0,0,1,1.56-3.37A25.19,25.19,0,0,1,164.71,22a22.83,22.83,0,0,1,10.73-7"/><path class="cls-1" d="M202.41,58.64a6.71,6.71,0,0,0-4.16,1.12,5,5,0,0,0-1.69,1.8l-1.22,1.23a3,3,0,0,1-1.24.79,12.76,12.76,0,0,1-6.53,1.57q-5.83,0-8.77-3.59-3.13-3.37-3.36-10.34h30c0-.53-.05-1-.05-1.57,0-8.45,1.77-15.38,5.24-20.83A26.75,26.75,0,0,0,207.36,24a24.81,24.81,0,0,0-15-7.63,37.34,37.34,0,0,0-5.93-.46,31.16,31.16,0,0,0-9.29,1.33,23,23,0,0,0-10.73,7,25.4,25.4,0,0,0-4.14,6.86c-.14.3-.27.58-.38.89a40.69,40.69,0,0,0-2.45,14.73q0,15.08,7.2,23.15,7.2,8.32,20,8.32,10.58,0,17.53-5.17a21.67,21.67,0,0,0,5-4.92,34.12,34.12,0,0,1-3.06-9.46Zm-7.19-26.53q2.7,2.93,3.14,9H175.44c.15-3.9,1.27-6.88,3.36-9,.09-.08.21-.14.29-.22A11,11,0,0,1,186.9,29a12.42,12.42,0,0,1,5.49,1.16,9.12,9.12,0,0,1,2.83,2"/><path class="cls-1" d="M261.71,4.12a7.21,7.21,0,0,0-5.4-2.36h-7.64V27.39a21.51,21.51,0,0,0-7.19-7,21.09,21.09,0,0,0-9.89-2.25q-10.58,0-17.32,8.77c-.46.6-.88,1.23-1.29,1.88-3.47,5.45-5.23,12.38-5.23,20.83,0,.53,0,1,.06,1.57a46.48,46.48,0,0,0,.71,7.42,33.47,33.47,0,0,0,3.06,9.46,26.63,26.63,0,0,0,2.69,4.25,18.88,18.88,0,0,0,9,6.18,35.15,35.15,0,0,0,11.46,1.91,37.73,37.73,0,0,0,20-5.62Q264,69.21,264,53.24V9.4a7.46,7.46,0,0,0-2.24-5.28M245.52,62.68a10.93,10.93,0,0,1-9.44,4.72,11.17,11.17,0,0,1-9.67-4.72C224.17,59.53,223,55,223,49q0-8.09,3.37-12.59a10.74,10.74,0,0,1,9.22-4.72,11.73,11.73,0,0,1,9.66,4.5c2.25,3.14,3.38,7.42,3.38,12.81,0,6-1,10.56-3.15,13.71"/><path class="cls-1" d="M137.13,98l-.12.51H130.6V90.18h.83V98Z"/><path class="cls-1" d="M147,98.55V90.18h.82v8.37Z"/><path class="cls-1" d="M167.27,90.18v8.37h-.83V91.3l-4,6.87-4-6.8v7.18H158V90.18h.77l.11.21,3.78,6.45,3.91-6.66Z"/><path class="cls-1" d="M185.94,94.38a4.71,4.71,0,0,1-.52,2.18,4,4,0,0,1-1.55,1.59,5.34,5.34,0,0,1-4.86,0,3.9,3.9,0,0,1-1.54-1.58,4.75,4.75,0,0,1-.51-2.2,4.8,4.8,0,0,1,.51-2.22A3.9,3.9,0,0,1,179,90.58a5.26,5.26,0,0,1,4.88,0,3.84,3.84,0,0,1,1.54,1.58A4.8,4.8,0,0,1,185.94,94.38Zm-2.53,3.43a3.34,3.34,0,0,0,1.22-1.43,4.68,4.68,0,0,0,.42-2,4.74,4.74,0,0,0-.42-2,3.42,3.42,0,0,0-1.22-1.44,3.54,3.54,0,0,0-2-.53,3.49,3.49,0,0,0-1.95.53,3.45,3.45,0,0,0-1.23,1.44,4.89,4.89,0,0,0-.41,2,4.83,4.83,0,0,0,.41,2,3.36,3.36,0,0,0,1.23,1.43,3.49,3.49,0,0,0,1.95.53A3.54,3.54,0,0,0,183.41,97.81Z"/><path class="cls-1" d="M202.4,95.36A3,3,0,0,1,201,98.15a4.14,4.14,0,0,1-1.9.4H199a4.17,4.17,0,0,1-2-.46,2.69,2.69,0,0,1-1.23-1.31,3.22,3.22,0,0,1-.2-1.26V90.18h.83v5.41a2.87,2.87,0,0,0,.07.78,2.14,2.14,0,0,0,1.08,1.31,3.74,3.74,0,0,0,1.93.35,2.61,2.61,0,0,0,1.66-.58,2.43,2.43,0,0,0,.73-1.47,7.4,7.4,0,0,0,0-.81v-5h.5Z"/><path class="cls-1" d="M218.78,96.5h0a1.87,1.87,0,0,1-.44,1.19,3,3,0,0,1-1.21.88,4.59,4.59,0,0,1-1.75.32,6.54,6.54,0,0,1-2-.24,6.07,6.07,0,0,1-1.35-.67l0,0v-1h.22l0,0a7.66,7.66,0,0,0,.6.7,2.64,2.64,0,0,0,.57.4l.06,0a3.24,3.24,0,0,0,1.19.32,8.3,8.3,0,0,0,1,0h.26l.26,0a2.37,2.37,0,0,0,.75-.25,2.07,2.07,0,0,0,.76-.58,1.33,1.33,0,0,0,.31-.85v-.07a.37.37,0,0,0,0-.11,1.14,1.14,0,0,0-.22-.57,1.16,1.16,0,0,0-.25-.29,3.37,3.37,0,0,0-1.07-.61q-.24-.09-1-.3l-.47-.14a9.26,9.26,0,0,1-1.62-.64l-.22-.12a3.42,3.42,0,0,1-.61-.52,1.73,1.73,0,0,1-.44-1s0-.09,0-.14,0-.07,0-.11a1.82,1.82,0,0,1,.4-1.14,2.54,2.54,0,0,1,1.09-.77,4.4,4.4,0,0,1,1.6-.27,6.24,6.24,0,0,1,1.29.15c.21,0,.41.1.63.16s.47.16.68.25l0,0v1h-.22l0,0a2.63,2.63,0,0,0-.86-.78l0,0a3.79,3.79,0,0,0-1.49-.31l-.43,0a2.56,2.56,0,0,0-1.41.55l-.09.07-.11.13v0a1.18,1.18,0,0,0-.27.76V92a.31.31,0,0,1,0,.1,1.11,1.11,0,0,0,.07.26,1.07,1.07,0,0,0,.36.52l.05,0a1.88,1.88,0,0,0,.24.18l.09.05a2.81,2.81,0,0,0,.52.26c.29.12.71.27,1.26.44s1,.33,1.38.48a2.08,2.08,0,0,1,.3.13,3.52,3.52,0,0,1,1.12.8,1.71,1.71,0,0,1,.45,1c0,.06,0,.11,0,.16Z"/><path class="cls-1" d="M228.37,98.55V90.18h.82v8.37Z"/><path class="cls-1" d="M247.59,90.18v8.37h-.54l0-.06s-.56-2.24-3.83-4a13.19,13.19,0,0,1-3.43-2.41v6.46H239V91a2.26,2.26,0,0,0-.27-.36.77.77,0,0,0-.42-.2h-.07v-.24h.95l0,0a3.54,3.54,0,0,1,.35.51l.11.18a10.86,10.86,0,0,0,4,3.14,9.25,9.25,0,0,1,3.15,2.63V90.18Z"/><path class="cls-1" d="M258,98h5.71l-.13.51h-6.4V90.18h6.4l.13.51H258v2.6h3.28v.51H258Z"/><path class="cls-1" d="M268.91,1.76h3.94v.5h-1.67v4h-.59v-4h-1.68Zm9.15,4.46V2.78l-1.84,2.89h-.27L274.1,2.85V6.22h-.57V1.76H274L276.08,5l2.05-3.23h.48V6.22Z"/><path class="cls-2" d="M70.86,1.76a48.47,48.47,0,1,0,48.41,48.6A48.31,48.31,0,0,0,70.86,1.76ZM85.24,75.18,75.49,64.1l1-.11c6.75-.81,12-6.76,11.63-13.31-.36-7.33-5.77-12.83-12.84-13-4.45-.07-8.91,0-13.54,0V75.48H48.4c0-.48-.07-1-.07-1.41q0-24-.07-48c0-1.3.3-1.72,1.66-1.71,8.08.07,16.16,0,24.24,0,13.62,0,24.25,8.8,26.82,22.17C103.22,58.12,96.27,70.76,85.24,75.18Z"/></svg>