<svg data-name="Layer 1" xmlns="http://www.w3.org/2000/svg" viewBox="0 0 297.87 58.24"><path d="M286.88 36.09a4.29 4.29 0 01-4 2.57h-129.7c-1.72 0-2.74-1.15-2.28-2.57l10.89-33.55a4.29 4.29 0 013.95-2.57h129.74c1.72 0 2.74 1.15 2.28 2.57z" fill="#ec1c24"/><path d="M13.19 4.34h11.15l-.89 3.82a1.13 1.13 0 01-.49.78 2.41 2.41 0 01-1.11.2h-6.71a3.34 3.34 0 00-2.09.51 3 3 0 00-.93 1.51 6.07 6.07 0 00-.31 1.8c0 1.33.92 2.25 2.75 2.75a45 45 0 015.15 1.51c1.87 1 2.8 2.87 2.8 5.51a15.56 15.56 0 01-1.87 7.91 7.12 7.12 0 01-6.49 3.9H1.42a1.32 1.32 0 01-1-.44A1.58 1.58 0 01-.04 33l1.51-5.69H2a1.58 1.58 0 00.31 1.72 1.75 1.75 0 001.29.45h1.51c1.72 0 3.43 0 5.15-.15s2.64-.26 2.75-.47c.56 0 1.07-.5 1.53-1.51a6.86 6.86 0 00.69-2.81q0-1.6-5.22-3t-5.22-4.81v-.58q0-5.46 2-8.48a7.23 7.23 0 016.4-3.33zm27.77 19.95H33.8l-2.13 8.4a1.45 1.45 0 00.24 1.27 3 3 0 001.44.6h-7.2a1.83 1.83 0 01-.93-.22 1.18 1.18 0 01-.62-1.11v-.53l6.57-26.16a1.66 1.66 0 00-.33-1.42 1.49 1.49 0 00-1.22-.71h15.59a7.58 7.58 0 014.62 1.11q1.7 1.34 1.69 4.89a17.8 17.8 0 01-2.13 9 9.19 9.19 0 01-8.43 4.88zM37.67 8.92l-2.58 10.35h4.31a3.92 3.92 0 003.64-2.58 12.15 12.15 0 001.07-5.37 2.84 2.84 0 00-.47-2 2.42 2.42 0 00-1.62-.42zM58.5 6.47a2.49 2.49 0 00.09-.76 1.45 1.45 0 00-.44-1.11 1.53 1.53 0 00-.44-.27h19.72l-.8 3.64c-.12.62-.59.93-1.42.93H64.54l-1.46 6.64h10.88l-.76 3.91a1.19 1.19 0 01-.38.73 1.5 1.5 0 01-1 .24h-8.26a2.62 2.62 0 00-1.53.27 2.52 2.52 0 00-.51 1.15l-1.64 7.7h10.88a2.17 2.17 0 001.2-.24 2.84 2.84 0 00.58-1.15h.42l-1.15 5a1.51 1.51 0 01-.82 1.07 3.69 3.69 0 01-1.62.31H53.62c-1 0-1.47-.36-1.47-1.07a5.88 5.88 0 01.09-.67zm24.12 0a2.49 2.49 0 00.09-.76 1.45 1.45 0 00-.44-1.11 1.53 1.53 0 00-.44-.27h19.72l-.8 3.64c-.12.62-.59.93-1.42.93H88.66l-1.46 6.64h10.84l-.76 3.91a1.19 1.19 0 01-.38.73 1.5 1.5 0 01-1 .24h-8.22a2.62 2.62 0 00-1.53.27 2.52 2.52 0 00-.51 1.15l-1.68 7.7h10.92a2.17 2.17 0 001.24-.22 2.84 2.84 0 00.58-1.15h.4l-1.15 5a1.51 1.51 0 01-.82 1.07 3.69 3.69 0 01-1.62.31H77.74c-1 0-1.47-.36-1.47-1.07a5.88 5.88 0 01.09-.67zm34.47 28.07H101.9a1.43 1.43 0 01-1-.33 1.24 1.24 0 01-.33-.91 2.65 2.65 0 01.13-.85l6.88-26.56q.09-.61-1.11-1.29l-.62-.27h15.51a7.17 7.17 0 015.2 1.69q2.13 2.09 2.13 7.07a34.46 34.46 0 01-1.2 8.94 30.74 30.74 0 01-4 9.12 6.78 6.78 0 01-2.93 2.54 8 8 0 01-3.47.85zm-3.37-25.68l-4.89 20.58h4.58a11 11 0 002.27-.18 2.23 2.23 0 001.33-.89 20.44 20.44 0 003.78-9 40 40 0 00.8-7.88 2.35 2.35 0 00-.82-2 3.63 3.63 0 00-2.29-.65zm17.99-3.14a1.6 1.6 0 00-.67-1 8.37 8.37 0 00-.93-.4h7a1.49 1.49 0 011.07.31 2.22 2.22 0 01.49 1.07l2.4 10.75 6.26-10.53a1.35 1.35 0 00.18-.53c0-.47-.42-.83-1.24-1.07h7c.62 0 .93.25.93.76a1.89 1.89 0 01-.13.67 2 2 0 01-.18.36l-10.93 16.63-2.35 10a1.14 1.14 0 00.27 1.16 3.73 3.73 0 001 .62h-7.46c-.62 0-.93-.44-.93-1.33v-.58l2.75-10.22zm51.61 28.82h-15.19a1.43 1.43 0 01-1-.33 1.24 1.24 0 01-.33-.91 2.65 2.65 0 01.13-.85l6.89-26.56q.09-.61-1.11-1.29l-.62-.27h15.55a7.17 7.17 0 015.2 1.69q2.12 2.09 2.12 7.08a34.46 34.46 0 01-1.2 8.94 30.74 30.74 0 01-4 9.12 6.78 6.78 0 01-2.93 2.54 8.05 8.05 0 01-3.51.84zm-3.36-25.67l-4.9 20.57h4.58a11 11 0 002.27-.18 2.26 2.26 0 001.33-.89 20.44 20.44 0 003.78-9 40 40 0 00.8-7.88 2.35 2.35 0 00-.82-2 3.63 3.63 0 00-2.29-.65zm26.42 12.67h-2.58l-2.67 11.5a.91.91 0 00.31 1 5 5 0 00.93.49h-7a1.36 1.36 0 01-1-.42.94.94 0 01-.29-1l6.35-26.79c.06-.53.09-.86.09-1a.9.9 0 00-.27-.67 1.76 1.76 0 00-.89-.4H215a6.64 6.64 0 013.95.93c1.16.86 1.73 2.41 1.73 4.66 0 4.15-.77 7.15-2.31 9a8.09 8.09 0 01-5.49 2.7l2.22 6.89c.35.8.83 1.2 1.42 1.2h1.64l-1 3.91a1.26 1.26 0 01-1.42 1h-4.49a1.8 1.8 0 01-1.87-1.15zm.31-12.62l-1.82 7.82h4.89a4.14 4.14 0 003.06-1.11 5.15 5.15 0 001.29-3.86 3.17 3.17 0 00-.71-2.4 2.86 2.86 0 00-1.82-.44h-4.89zm21.27-3.11v-.49a.64.64 0 00-.31-.62 3.34 3.34 0 00-.89-.31h7.15a1.17 1.17 0 011 .42 1.25 1.25 0 01.16 1l-6.44 27a1.4 1.4 0 00.18 1.2 1.07 1.07 0 00.93.53h-7.06c-.89 0-1.33-.41-1.33-1.24v-.4zm10.62-.18a1.17 1.17 0 00-.4-.93 1.3 1.3 0 00-.89-.36h7.2a.72.72 0 01.6.33 1.29 1.29 0 01.24.78l.63 19.68 10.93-19.15a1.32 1.32 0 00.18-.67c0-.44-.28-.77-.84-1h6.73a1 1 0 01.82.29 1.11 1.11 0 01.24.73v.44l-16.63 28.77h-6.2a2.46 2.46 0 01-1.07-.18 1.18 1.18 0 01-.67-1.11zm30.07.84a2.49 2.49 0 00.09-.76 1.45 1.45 0 00-.44-1.11 1.53 1.53 0 00-.44-.27h19.72l-.8 3.64c-.12.62-.59.93-1.42.93H274.7l-1.48 6.64h10.84l-.75 3.91a1.19 1.19 0 01-.38.73 1.5 1.5 0 01-1 .24h-8.26a2.62 2.62 0 00-1.53.27 2.52 2.52 0 00-.51 1.15l-1.6 7.7h10.88a2.17 2.17 0 001.24-.22 2.84 2.84 0 00.58-1.15h.4l-1.15 5a1.51 1.51 0 01-.82 1.07 3.69 3.69 0 01-1.62.31h-15.78c-1 0-1.47-.36-1.47-1.07a5.88 5.88 0 01.09-.67zM167.76 42.06h6.07l-.33 1.9a.85.85 0 01-.5.64 1.6 1.6 0 01-.45.07h-3.81a4.47 4.47 0 00-.59 0 1.07 1.07 0 00-.45.23c-.46.38-1 1.75-1.59 4.1a23.65 23.65 0 00-.9 5.14 1 1 0 00.32.85 1.35 1.35 0 00.84.24h4.17a1.36 1.36 0 00.79-.26 1.08 1.08 0 00.46-.71h.26l-.43 2.87a1.15 1.15 0 01-.5.64 2 2 0 01-.85.36h-6.18a4.56 4.56 0 01-1.75-.28 1.75 1.75 0 01-1.11-1.73 28.13 28.13 0 01.62-4.81 43.32 43.32 0 011.47-5.71c.63-1.9 1.2-2.93 1.69-3.12a8.09 8.09 0 011.34-.37 7.2 7.2 0 011.41-.05zm16.61 12.03h-5.41l-1.61 2.8a1 1 0 00-.12.42.88.88 0 00.64.85h-3.31a.79.79 0 01-.58-.18.62.62 0 01-.18-.46 1 1 0 01.14-.5l8.2-14.14a.58.58 0 00.07-.28.64.64 0 00-.12-.38.37.37 0 00-.31-.17h5.12a.44.44 0 01.39.22.85.85 0 01.13.44l.54 14.83a.59.59 0 00.07.35 1.14 1.14 0 00.5.26h-3.57c-.38 0-.57-.2-.57-.61v-3.45zm-.31-8.88l-3.62 6.33h3.81zm11.85 6.04h-1.37l-1.42 6.14a.48.48 0 00.17.52 2.58 2.58 0 00.5.26h-3.74a.67.67 0 01-.51-.23.5.5 0 01-.15-.51l3.39-14.29c0-.28.05-.46.05-.52a.48.48 0 00-.14-.35.82.82 0 00-.47-.21h8.34a3.56 3.56 0 012.11.5 2.91 2.91 0 01.92 2.49q0 3.31-1.23 4.81a4.37 4.37 0 01-2.94 1.4l1.18 3.67c.19.43.44.64.76.64h.88l-.52 2.08c-.08.35-.33.52-.76.52h-2.39a1 1 0 01-1-.62zm.16-6.73l-1 4.17h2.61a2.22 2.22 0 001.63-.59 2.74 2.74 0 00.69-2.06 1.68 1.68 0 00-.38-1.28 1.51 1.51 0 00-1-.24zm21.77 6.73h-1.37l-1.42 6.14a.48.48 0 00.17.52 2.58 2.58 0 00.5.26h-3.76a.67.67 0 01-.51-.23.5.5 0 01-.15-.51l3.39-14.29c0-.28.05-.46.05-.52a.48.48 0 00-.14-.35.82.82 0 00-.47-.21h8.34a3.56 3.56 0 012.11.5 2.91 2.91 0 01.92 2.49q0 3.31-1.23 4.81a4.37 4.37 0 01-2.94 1.4l1.18 3.67c.19.43.44.64.76.64h.88l-.52 2.08c-.08.35-.33.52-.76.52h-2.39a1 1 0 01-1-.62zm.17-6.73l-1 4.17h2.61a2.2 2.2 0 001.63-.59 2.74 2.74 0 00.71-2.06 1.68 1.68 0 00-.38-1.28 1.51 1.51 0 00-1-.24zm11.02-1.33a1.35 1.35 0 00.05-.4.75.75 0 00-.24-.59.66.66 0 00-.24-.14h10.52l-.43 1.94c-.06.33-.32.5-.76.5h-5.68l-.78 3.53h5.78l-.4 2.09a.66.66 0 01-.2.39.76.76 0 01-.51.13h-4.41a1.51 1.51 0 00-.82.14 1.34 1.34 0 00-.27.62l-.88 4.14h5.8a1.14 1.14 0 00.66-.12 1.54 1.54 0 00.31-.62h.21l-.62 2.68a.79.79 0 01-.44.57 2 2 0 01-.86.17h-8.41q-.78 0-.78-.57a3.39 3.39 0 01.05-.35zm12.65-.26a.68.68 0 000-.14v-.12a.51.51 0 00-.14-.4l-.4-.21h3.36a1.12 1.12 0 01.5.11 1.58 1.58 0 01.5.56l2.87 7.39 1.66-7.23a.94.94 0 00-.12-.54 1.92 1.92 0 00-.62-.29h3.08a1 1 0 01.63.15.74.74 0 01.18.58l-3.46 15.37h-1.49a1.18 1.18 0 01-.66-.19 1.32 1.32 0 01-.47-.47l-3.23-8.96-2 8.58a.68.68 0 00.26.72 1.29 1.29 0 00.45.3l-3.46.07a.66.66 0 01-.5-.26.87.87 0 01-.21-.57zm12.84 2.13a1.35 1.35 0 00-.38 0 .9.9 0 00-.43.35l.54-2.56a.45.45 0 01.3-.38 1.38 1.38 0 01.39-.1h10c.74 0 1.11-.12 1.11-.35h.14l-.57 2.52a.77.77 0 01-.23.42.81.81 0 01-.53.13h-3.51l-2.94 12.45c0 .17 0 .32.29.45l.26.12-3.81.07a.47.47 0 01-.39-.2.71.71 0 01-.15-.44l3.06-12.53zm17.65 9.03h-5.4l-1.61 2.8a1 1 0 00-.12.42.88.88 0 00.64.85h-3.32a.79.79 0 01-.58-.18.62.62 0 01-.18-.46 1 1 0 01.14-.5l8.22-14.14a.58.58 0 00.07-.28.64.64 0 00-.12-.38.37.37 0 00-.31-.17h5.12a.44.44 0 01.39.22.85.85 0 01.13.44l.5 14.83a.59.59 0 00.07.35 1.14 1.14 0 00.5.26h-3.58c-.38 0-.57-.2-.57-.61v-3.45zm-.31-8.88l-3.63 6.33h3.81zm8.72-2.02v-.45c0-.46-.18-.69-.55-.69h3.77c.46 0 .69.17.69.52v.26l-2.91 12.44h4.29a2.24 2.24 0 001.33-.26.26.26 0 00.07-.26h.19l-.66 2.65a1.11 1.11 0 01-.32.62 2 2 0 01-1 .14h-7.65a.54.54 0 01-.49-.23.94.94 0 01-.15-.53 1.61 1.61 0 010-.26z" fill="#fff"/></svg>