<svg width="32" height="32" fill="none" xmlns="http://www.w3.org/2000/svg"><path d="M16 23.27a1.455 1.455 0 10.001-2.91 1.455 1.455 0 000 2.91zm-1.454-4.36h2.909c0-1.162.182-1.375 1.377-1.973 2.078-1.038 2.986-2.098 2.986-4.573 0-3.17-2.495-5.091-5.818-5.091a5.818 5.818 0 00-5.818 5.818h2.909A2.91 2.91 0 0116 10.18c1.858 0 2.91.81 2.91 2.183 0 1.16-.183 1.374-1.379 1.971-2.077 1.04-2.985 2.099-2.985 4.574z" fill="#EB2D2D"/><path fill-rule="evenodd" clip-rule="evenodd" d="M0 16c0 8.837 7.163 16 16 16s16-7.163 16-16S24.837 0 16 0 0 7.163 0 16zm29.09 0c0 7.23-5.86 13.09-13.09 13.09-7.23 0-13.09-5.86-13.09-13.09C2.91 8.77 8.77 2.91 16 2.91c7.23 0 13.09 5.86 13.09 13.09z" fill="#EB2D2D"/></svg>