<?xml version="1.0" encoding="utf-8"?>
<!-- Generator: Adobe Illustrator 16.0.0, SVG Export Plug-In . SVG Version: 6.00 Build 0)  -->
<!DOCTYPE svg PUBLIC "-//W3C//DTD SVG 1.1//EN" "http://www.w3.org/Graphics/SVG/1.1/DTD/svg11.dtd">
<svg version="1.1" xmlns="http://www.w3.org/2000/svg" xmlns:xlink="http://www.w3.org/1999/xlink" x="0px" y="0px" width="500px"
	 height="500px" viewBox="0 0 500 500" enable-background="new 0 0 500 500" xml:space="preserve">
<g id="Background_Simple" display="none">
	<path display="inline" fill="#03ABEF" d="M494.25,258.907c-9.143,43.867-33.927,93.625-76.439,113.739
		c-64.233,30.396-63.973,85.883-185.301,99.298c-18.917,2.094-36.695,2.108-53.3,0.332c-8.927-0.954-17.52-2.438-25.758-4.402
		C78.657,450.125,32.31,392.962,19.208,327.736c-17.247-85.785,36.736-136.191,72.226-166.3
		c35.489-30.108,68.413-130.77,187.583-144.895c18.17-2.145,36.582-2.435,54.782-0.371c41.544,4.692,85.749,22.367,114.655,53.671
		c2.171,2.352,4.269,4.778,6.304,7.265C494.48,125.784,506.719,199.102,494.25,258.907z"/>
	<g display="inline">
		<path opacity="0.7" fill="#92E5FF" d="M494.971,260.075c-9.531,43.785-34.756,93.321-77.445,113.057
			c-64.5,29.826-64.731,85.313-186.174,97.65c-18.935,1.927-36.712,1.783-53.301-0.141c-8.918-1.032-17.497-2.593-25.718-4.63
			C77.698,447.6,31.86,390.028,19.338,324.688C2.853,238.754,57.28,188.829,93.036,159.036
			c35.755-29.792,69.57-130.158,188.861-143.225c18.188-1.984,36.603-2.11,54.783,0.114c41.5,5.061,85.548,23.126,114.175,54.686
			c2.15,2.371,4.227,4.815,6.238,7.321C496.382,126.959,507.97,200.382,494.971,260.075z"/>
	</g>
</g>
<g id="Floor">
	<g>
		
			<line fill="none" stroke="#263238" stroke-linecap="round" stroke-linejoin="round" stroke-miterlimit="10" x1="233.957" y1="472.428" x2="37.91" y2="472.428"/>
		
			<line fill="none" stroke="#263238" stroke-linecap="round" stroke-linejoin="round" stroke-miterlimit="10" x1="465.136" y1="472.428" x2="240.885" y2="472.428"/>
	</g>
</g>
<g id="Table">
	<g>
		
			<line fill="none" stroke="#263238" stroke-linecap="round" stroke-linejoin="round" stroke-miterlimit="10" x1="449.367" y1="165.846" x2="37.91" y2="165.846"/>
		
			<line fill="none" stroke="#263238" stroke-linecap="round" stroke-linejoin="round" stroke-miterlimit="10" x1="465.136" y1="165.846" x2="458.185" y2="165.846"/>
	</g>
	<g>
		
			<rect x="131.027" y="312.066" fill="#263238" stroke="#263238" stroke-linecap="round" stroke-linejoin="round" stroke-miterlimit="10" width="97.661" height="4.521"/>
		<polygon fill="#263238" stroke="#263238" stroke-linecap="round" stroke-linejoin="round" stroke-miterlimit="10" points="
			152.503,322.013 171.013,322.013 171.013,467.601 152.503,467.601 152.503,472.574 207.212,472.574 207.212,467.601 
			188.702,467.601 188.702,322.013 207.212,322.013 207.212,317.039 152.503,317.039 		"/>
	</g>
</g>
<g id="Microscope">
	<g>
		<g>
			<polygon fill="#FFFFFF" stroke="#263238" stroke-linecap="round" stroke-linejoin="round" stroke-miterlimit="10" points="
				243.735,113.782 241.284,114.31 239.513,112.042 244.415,110.987 			"/>
			
				<rect x="238.179" y="99.657" transform="matrix(0.9776 -0.2106 0.2106 0.9776 -16.8402 53.0686)" fill="#FFFFFF" stroke="#263238" stroke-linecap="round" stroke-linejoin="round" stroke-miterlimit="10" width="5.014" height="11.852"/>
		</g>
		<g>
			<polygon fill="#FFFFFF" stroke="#263238" stroke-linecap="round" stroke-linejoin="round" stroke-miterlimit="10" points="
				235.185,113.87 232.944,112.745 232.985,109.868 237.467,112.118 			"/>
			
				<rect x="235.441" y="99.644" transform="matrix(0.8937 0.4486 -0.4486 0.8937 72.6482 -95.5278)" fill="#FFFFFF" stroke="#263238" stroke-linecap="round" stroke-linejoin="round" stroke-miterlimit="10" width="5.014" height="11.852"/>
		</g>
		<g>
			<polygon fill="#FFFFFF" stroke="#263238" stroke-linecap="round" stroke-linejoin="round" stroke-miterlimit="10" points="
				228.219,110.742 225.979,109.618 226.02,106.741 230.501,108.99 			"/>
			
				<rect x="228.475" y="96.516" transform="matrix(0.8937 0.4486 -0.4486 0.8937 70.5049 -92.7353)" fill="#FFFFFF" stroke="#263238" stroke-linecap="round" stroke-linejoin="round" stroke-miterlimit="10" width="5.014" height="11.852"/>
		</g>
		
			<rect x="194.75" y="134.216" fill="#263238" stroke="#263238" stroke-linecap="round" stroke-linejoin="round" stroke-miterlimit="10" width="37.367" height="9.099"/>
		<g>
			<path fill="#FFFFFF" stroke="#263238" stroke-linecap="round" stroke-linejoin="round" stroke-miterlimit="10" d="
				M264.482,170.511h-60.788V154.77h52.654c4.492,0,8.134,3.642,8.134,8.134V170.511z"/>
			
				<line fill="none" stroke="#263238" stroke-linecap="round" stroke-linejoin="round" stroke-miterlimit="10" x1="264.002" y1="162.604" x2="219.282" y2="162.604"/>
		</g>
		
			<rect x="194.75" y="134.216" fill="#263238" stroke="#263238" stroke-linecap="round" stroke-linejoin="round" stroke-miterlimit="10" width="24.402" height="36.295"/>
		<g>
			<polygon fill="#263238" stroke="#263238" stroke-linecap="round" stroke-linejoin="round" stroke-miterlimit="10" points="
				300.793,62.683 253.377,81.54 251.404,76.555 298.82,57.698 			"/>
			
				<rect x="281.851" y="63.343" transform="matrix(0.9297 -0.3682 0.3682 0.9297 -4.7261 108.9573)" fill="#FFFFFF" stroke="#263238" stroke-linecap="round" stroke-linejoin="round" stroke-miterlimit="10" width="2.634" height="7.041"/>
			
				<rect x="251.612" y="69.749" transform="matrix(0.9298 -0.3681 0.3681 0.9298 -9.1506 101.9523)" fill="#263238" stroke="#263238" stroke-linecap="round" stroke-linejoin="round" stroke-miterlimit="10" width="22.18" height="10.433"/>
		</g>
		<path fill="#FFFFFF" stroke="#263238" stroke-linecap="round" stroke-linejoin="round" stroke-miterlimit="10" d="M261.649,85.909
			l-6.807,9.984l-27.229,0.908l-32.901,57.407c0,0-10.211-15.656-10.211-23.145c0-0.075,0-0.149,0-0.223
			c0.018-5.949,1.867-11.743,5.219-16.658l29.497-43.249h34.49L261.649,85.909z"/>
		
			<line fill="none" stroke="#263238" stroke-linecap="round" stroke-linejoin="round" stroke-miterlimit="10" x1="261.649" y1="85.909" x2="209.688" y2="85.909"/>
		
			<rect x="229.202" y="65.447" fill="#263238" stroke="#263238" stroke-linecap="round" stroke-linejoin="round" stroke-miterlimit="10" width="17.018" height="5.445"/>
		<g>
			<path fill="#263238" stroke="#263238" stroke-linecap="round" stroke-linejoin="round" stroke-miterlimit="10" d="
				M194.859,133.797c-0.754,0-1.518-0.197-2.213-0.612c-2.052-1.225-2.723-3.882-1.499-5.934l17-28.488
				c1.225-2.053,3.881-2.724,5.934-1.499c2.052,1.225,2.724,3.882,1.499,5.934l-17.001,28.488
				C197.77,133.044,196.333,133.797,194.859,133.797z"/>
		</g>
		<polygon fill="#263238" stroke="#263238" stroke-linecap="round" stroke-linejoin="round" stroke-miterlimit="10" points="
			254.842,95.893 248.624,106.954 226.798,98.224 233.001,87.885 		"/>
		
			<rect x="223.176" y="122.994" fill="#263238" stroke="#263238" stroke-linecap="round" stroke-linejoin="round" stroke-miterlimit="10" width="34.693" height="2.683"/>
		
			<rect x="223.176" y="125.79" fill="#FFFFFF" stroke="#263238" stroke-linecap="round" stroke-linejoin="round" stroke-miterlimit="10" width="22.425" height="8.037"/>
		
			<circle fill="#FFFFFF" stroke="#263238" stroke-linecap="round" stroke-linejoin="round" stroke-miterlimit="10" cx="212.671" cy="145.493" r="8.037"/>
		
			<circle fill="#FFFFFF" stroke="#263238" stroke-linecap="round" stroke-linejoin="round" stroke-miterlimit="10" cx="226.411" cy="138.493" r="3.552"/>
	</g>
</g>
<g id="Bottle">
	
		<rect x="99.642" y="153.289" fill="#FFFFFF" stroke="#263238" stroke-linecap="round" stroke-linejoin="round" stroke-miterlimit="10" width="6.42" height="4.187"/>
	<polygon fill="#FFFFFF" stroke="#263238" stroke-linecap="round" stroke-linejoin="round" stroke-miterlimit="10" points="
		178.908,170.663 71.29,170.663 82.052,154.669 168.146,154.669 	"/>
	
		<rect x="85.115" y="144.097" fill="#FFFFFF" stroke="#263238" stroke-linecap="round" stroke-linejoin="round" stroke-miterlimit="10" width="80.239" height="10.301"/>
	
		<rect x="90.773" y="150.802" fill="#263238" stroke="#263238" stroke-linecap="round" stroke-linejoin="round" stroke-miterlimit="10" width="6.099" height="3.703"/>
	
		<rect x="153.292" y="150.802" fill="#263238" stroke="#263238" stroke-linecap="round" stroke-linejoin="round" stroke-miterlimit="10" width="6.099" height="3.703"/>
	
		<rect x="125.323" y="135.545" fill="#FFFFFF" stroke="#263238" stroke-linecap="round" stroke-linejoin="round" stroke-miterlimit="10" width="6.234" height="4.066"/>
	<g>
		<path fill="#FFFFFF" stroke="#263238" stroke-linecap="round" stroke-linejoin="round" stroke-miterlimit="10" d="
			M147.933,138.788l-17.48-32.509V90.966h-8.132v15.313l-17.48,32.509c-1.027,2.382,0.719,5.039,3.314,5.039h36.464
			C147.213,143.826,148.96,141.17,147.933,138.788z"/>
		<path fill="#03ABEF" stroke="#263238" stroke-linecap="round" stroke-linejoin="round" stroke-miterlimit="10" d="
			M138.735,127.562h-24.698l-5.23,9.728c-0.838,1.944,0.587,4.111,2.704,4.111h29.75c2.117,0,3.542-2.167,2.704-4.111
			L138.735,127.562z"/>
	</g>
</g>
<g id="Character_4">
	<g>
		<path fill="#FFFFFF" stroke="#263238" stroke-linecap="round" stroke-linejoin="round" stroke-miterlimit="10" d="
			M435.377,255.035l3.462,14.121l3.222,20.354c0,0,5.062,14.406,5.062,15.055c0,0.649-4.153,7.657-4.542,7.787
			c-0.39,0.13-9.345-4.672-9.345-4.672l-9.733-24.529L435.377,255.035z"/>
		<path fill="#263238" stroke="#263238" stroke-linecap="round" stroke-linejoin="round" stroke-miterlimit="10" d="M427.42,372.098
			l-1.799,19.186c0,0,0,26.681-0.6,31.478c-0.6,4.796-3.897,45.566-3.897,45.566l1.499,4.196c0,0,3.598,4.797,5.097,7.495
			s3.597,4.496,0.3,5.396c-3.298,0.899-5.696,0.899-8.994-0.3c-3.297-1.199-8.993-7.194-8.993-7.194l-4.796-2.698
			c0,0-1.499-2.998-1.199-5.396c0.3-2.398-0.3-11.392-0.3-11.392l-1.499-52.462l-1.199-35.374l28.18-0.6L427.42,372.098z"/>
		<path fill="#263238" stroke="#263238" stroke-linecap="round" stroke-linejoin="round" stroke-miterlimit="10" d="
			M372.859,372.098l1.799,19.186c0,0,0,26.681,0.6,31.478c0.6,4.796,3.897,45.566,3.897,45.566l-1.499,4.196
			c0,0-3.598,4.797-5.097,7.495s-3.597,4.496-0.3,5.396c3.298,0.899,5.696,0.899,8.994-0.3c3.297-1.199,8.993-7.194,8.993-7.194
			l4.796-2.698c0,0,1.499-2.998,1.199-5.396c-0.3-2.398,0.3-11.392,0.3-11.392l1.499-52.462l1.199-35.374l-28.18-0.6
			L372.859,372.098z"/>
		<path fill="#FFFFFF" stroke="#263238" stroke-linecap="round" stroke-linejoin="round" stroke-miterlimit="10" d="
			M374.516,299.062c0,0-12.487-47.435-12.206-48.278s18.495-10.26,21.166-11.525c2.67-1.265,3.373-1.546,3.795-1.546
			c0.421,0,25.439,0.703,25.439,0.703s22.338,15.592,22.619,16.435c0.008,0.023,0.025,0.09,0.048,0.185l-13.672,33.697
			l-0.141,11.946l7.871,22.77c0,0,6.276,20.562,7.822,30.26s5.248,40.816,5.248,40.816s-17.709,6.324-44.554,7.309
			c-26.846,0.983-37.949-6.887-37.949-6.887L374.516,299.062z"/>
		<g>
			<path fill="#03ABEF" stroke="#263238" stroke-linecap="round" stroke-linejoin="round" stroke-miterlimit="10" d="
				M406.862,196.515c4.842,1.855,8.259,6.122,9.45,11.219c1.377,5.886,3.406,15.459,2.948,18.993
				c-0.681,5.251-5.693,13.363-9.573,18.168s-11.815,14.271-11.785,14.768c0.031,0.497-13.937-25.823-15.208-27.503
				c-1.271-1.68-1.431-6.997-0.949-10.056c0.48-3.06,5.984-22.235,11.021-24.513s6.975-3.346,13.104-1.421
				C406.209,196.276,406.54,196.392,406.862,196.515z"/>
			<path fill="#FFFFFF" stroke="#263238" stroke-linecap="round" stroke-linejoin="round" stroke-miterlimit="10" d="
				M403.778,202.925c0,0,3.862,0.366,6.392,6.229s3.313,15.939,2.863,19.495c-0.449,3.556-5.147,8.628-8.868,10.58
				s-5.534,2.338-8.493,0.362c-2.96-1.976-8.448-9.814-8.735-11.78c-0.288-1.966,2.893-18.192,6.667-21.984
				C397.379,202.034,401.035,201.757,403.778,202.925z"/>
			<path fill="#263238" stroke="#263238" stroke-linecap="round" stroke-linejoin="round" stroke-miterlimit="10" d="
				M403.778,202.925c0,0,1.563,0.154,3.353,1.771c-1.821,0.265-5.606,0.761-6.975,0.512c-1.078-0.196-2.672-0.968-3.803-1.571
				C399.121,201.987,401.709,202.044,403.778,202.925z"/>
			<polyline fill="none" stroke="#263238" stroke-linecap="round" stroke-linejoin="round" stroke-miterlimit="10" points="
				398.496,220.835 397.831,226.986 402.486,227.318 			"/>
			<path fill="none" stroke="#263238" stroke-linecap="round" stroke-linejoin="round" stroke-miterlimit="10" d="M403.483,230.311
				c0,0-2.992,1.995-6.316-0.499"/>
			
				<path fill="none" stroke="#263238" stroke-width="1.5" stroke-linecap="round" stroke-linejoin="round" stroke-miterlimit="10" d="
				M397.998,215.183c0,0-1.164-2.826-5.818-0.998"/>
			
				<path fill="none" stroke="#263238" stroke-width="1.5" stroke-linecap="round" stroke-linejoin="round" stroke-miterlimit="10" d="
				M404.037,215.183c0,0,2.654-2.485,5.984,0.665"/>
			<ellipse fill="#263238" cx="405.866" cy="219.588" rx="0.831" ry="1.247"/>
			<ellipse fill="#263238" cx="394.507" cy="219.588" rx="0.831" ry="1.247"/>
			
				<line fill="none" stroke="#263238" stroke-linecap="round" stroke-linejoin="round" stroke-miterlimit="10" x1="399.159" y1="254.172" x2="399.159" y2="255.745"/>
			
				<line fill="none" stroke="#263238" stroke-linecap="round" stroke-linejoin="round" stroke-miterlimit="10" x1="399.159" y1="241.282" x2="399.159" y2="251.743"/>
			<path fill="none" stroke="#263238" stroke-linecap="round" stroke-linejoin="round" stroke-miterlimit="10" d="M403.376,244.445
				c-1.157,1.124-2.056,1.991-2.056,1.991"/>
			<path fill="none" stroke="#263238" stroke-linecap="round" stroke-linejoin="round" stroke-miterlimit="10" d="M413.292,230.976
				c0,0-2.376,6.998-5.222,9.843c-0.421,0.421-0.913,0.908-1.429,1.414"/>
			<path fill="none" stroke="#263238" stroke-linecap="round" stroke-linejoin="round" stroke-miterlimit="10" d="M385.844,237.448
				c0,0,5.668,5.996,8.328,8.323"/>
			<path fill="none" stroke="#263238" stroke-linecap="round" stroke-linejoin="round" stroke-miterlimit="10" d="M387.219,229.972
				c0,0,0.304,1.834,2.963,5.492c2.66,3.657,4.322,4.987,4.322,4.987"/>
		</g>
		<g>
			
				<line fill="none" stroke="#263238" stroke-linecap="round" stroke-linejoin="round" stroke-miterlimit="10" x1="397.53" y1="266.807" x2="397.53" y2="283.532"/>
			
				<line fill="#FFFFFF" stroke="#263238" stroke-linecap="round" stroke-linejoin="round" stroke-miterlimit="10" x1="398" y1="369.043" x2="398" y2="374.132"/>
			
				<line fill="#FFFFFF" stroke="#263238" stroke-linecap="round" stroke-linejoin="round" stroke-miterlimit="10" x1="398" y1="328.091" x2="398" y2="365.489"/>
			<polyline fill="none" stroke="#263238" stroke-linecap="round" stroke-linejoin="round" stroke-miterlimit="10" points="
				414.887,240.287 412.569,249.761 406.947,250.183 409.196,253.556 397.671,261.848 387.551,251.869 390.644,248.636 
				384.037,248.215 384.399,240.848 			"/>
		</g>
		<path fill="#FFFFFF" stroke="#263238" stroke-linecap="round" stroke-linejoin="round" stroke-miterlimit="10" d="M362.31,250.784
			c0,0-9.193,59.453-9.756,60.858c-0.562,1.406,0.281,3.233,0.563,4.357s9.558,2.39,10.261,2.39c0.702,0,8.292-10.682,8.292-10.682
			l1.827-13.915L362.31,250.784z"/>
		<polygon fill="#263238" stroke="#263238" stroke-linecap="round" stroke-linejoin="round" stroke-miterlimit="10" points="
			410.602,318.389 412.851,291.402 377.854,293.511 381.648,319.935 		"/>
		<path fill="#03ABEF" stroke="#263238" stroke-linecap="round" stroke-linejoin="round" stroke-miterlimit="10" d="
			M392.611,309.955l2.529-1.827c0,0,1.125-3.795,2.671-5.2s5.06-2.389,6.887-3.514c1.827-1.124,2.812-1.546,2.951-0.422
			c0.141,1.125-0.14,3.373-1.405,4.076c-1.265,0.703-3.373,1.546-3.373,1.546l-0.703,0.984c0,0,8.012,0.281,8.434,0.141
			s1.827-1.687,1.827-1.687s2.529-5.342,3.373-5.201s0.563,1.406,0.281,2.812s-0.984,5.06-0.984,7.449s-1.124,4.638-1.968,5.341
			c-0.843,0.703-7.448,3.092-7.448,3.092l-13.071,2.952V309.955z"/>
		<path fill="none" stroke="#263238" stroke-linecap="round" stroke-linejoin="round" stroke-miterlimit="10" d="M415.099,306.582
			c0,0-0.562,4.217-2.248,5.2c-1.688,0.984-4.217,0.703-4.217,0.703"/>
		
			<line fill="#FFFFFF" stroke="#263238" stroke-linecap="round" stroke-linejoin="round" stroke-miterlimit="10" x1="413.131" y1="314.453" x2="408.353" y2="315.296"/>
		
			<line fill="#FFFFFF" stroke="#263238" stroke-linecap="round" stroke-linejoin="round" stroke-miterlimit="10" x1="393.735" y1="311.361" x2="394.72" y2="317.686"/>
		
			<line fill="#FFFFFF" stroke="#263238" stroke-linecap="round" stroke-linejoin="round" stroke-miterlimit="10" x1="395.984" y1="309.955" x2="395.844" y2="316.421"/>
		<path fill="#FFFFFF" stroke="#263238" stroke-linecap="round" stroke-linejoin="round" stroke-miterlimit="10" d="
			M365.625,307.285l26.846,1.687l0.141,18.412l-22.488-1.546c0,0-13.071-2.53-13.493-2.952c-0.422-0.421-3.514-6.887-3.514-6.887
			l2.952-9.698"/>
		<polygon fill="#263238" stroke="#263238" stroke-linecap="round" stroke-linejoin="round" stroke-miterlimit="10" points="
			424.306,271.167 414.066,289.597 412.674,290.334 413.084,288.532 423.159,270.594 		"/>
		<path fill="#FFFFFF" stroke="#263238" stroke-linecap="round" stroke-linejoin="round" stroke-miterlimit="10" d="
			M425.854,315.606l0.099-18.496l9.595,2.77c0,0-2.374,8.209-4.154,10.88C429.613,313.43,425.854,315.606,425.854,315.606z"/>
		<path fill="#03ABEF" stroke="#263238" stroke-linecap="round" stroke-linejoin="round" stroke-miterlimit="10" d="M434.495,295.76
			l-6.185-10.26c0,0-1.546-6.606-2.529-6.887c-0.984-0.281-8.293,1.124-8.293,1.124l-3.092,4.638c0,0-0.703,0.422-0.422,1.266
			c0.281,0.843,0.703,1.968,0.703,1.968s-0.281,1.405,0,1.968c0.28,0.562,6.887,2.107,6.887,2.107s2.108,4.498,3.092,5.763
			c0.984,1.265,6.185,3.936,6.185,3.936S433.933,301.241,434.495,295.76z"/>
		<polyline fill="none" stroke="#263238" stroke-linecap="round" stroke-linejoin="round" stroke-miterlimit="10" points="
			424.879,281.569 418.572,282.553 414.477,286.32 		"/>
		<polyline fill="none" stroke="#263238" stroke-linecap="round" stroke-linejoin="round" stroke-miterlimit="10" points="
			424.388,285.665 419.146,285.665 414.678,287.608 		"/>
		<polyline fill="none" stroke="#263238" stroke-linecap="round" stroke-linejoin="round" stroke-miterlimit="10" points="
			414.722,288.778 421.705,288.732 424.224,288.532 		"/>
		<path fill="#92E3A9" stroke="#263238" stroke-linecap="round" stroke-linejoin="round" stroke-miterlimit="10" d="
			M418.244,279.112c0,0-1.638-0.737-1.884-0.737s-2.212,2.785-2.212,3.522s1.229,1.064,1.229,1.064l2.111-3.225L418.244,279.112z"/>
		<path fill="#FFFFFF" stroke="#263238" stroke-linecap="round" stroke-linejoin="round" stroke-miterlimit="10" d="
			M443.757,298.396c0,0,3.363,4.747,3.462,5.143s1.879,7.022,0.396,10.089s-9.792,9.1-12.363,8.209
			c-2.572-0.89-9.396-6.23-9.396-6.23l5.44-10.089l3.2-9.758l5.009,2.24"/>
	</g>
</g>
<g id="Character_3">
	<g>
		<path fill="#FFFFFF" stroke="#263238" stroke-linecap="round" stroke-linejoin="round" stroke-miterlimit="10" d="
			M235.524,232.663l1.081-11.22c0,0,1.61,0.863,4.181,0.288c2.571-0.575,5.402-2.014,5.402-2.014l-0.305,8.487
			C245.883,228.204,238.415,233.095,235.524,232.663z"/>
		<g>
			<path fill="#263238" stroke="#263238" stroke-linecap="round" stroke-linejoin="round" stroke-miterlimit="10" d="
				M268.431,318.404c0,0,3.481,79.08,4.36,86.237c0.878,7.157,0.143,35.786,1.548,39.039c1.405,3.254,2.914,9.76,2.914,9.76
				l-0.066,8.134c0,0-1.533,2.928-3.779,3.904c-2.247,0.976-10.276,4.229-11.84,6.181s2.706,3.253,5.959,3.253
				s10.684-1.626,12.3-1.951s7.157,0,10.054-0.977c2.896-0.976,3.516-1.952,3.8-3.253c0.284-1.302,1.405-48.474,1.405-48.474
				l-4.045-65.066l-0.737-37.517l-22.028-4.15L268.431,318.404z"/>
			<g>
				<path fill="#03ABEF" stroke="#263238" stroke-linecap="round" stroke-linejoin="round" stroke-miterlimit="10" d="
					M284.665,467.943c-3.256-0.191-11.258-2.465-11.258-2.465c-2.246,0.976-10.275,4.229-11.84,6.181s2.706,3.253,5.959,3.253
					s10.684-1.626,12.3-1.951s7.157,0,10.054-0.977c2.896-0.976,3.516-1.952,3.8-3.253c0.037-0.171,0.038-1.135,0.011-2.672
					C291.542,466.757,287.079,468.085,284.665,467.943z"/>
				<path fill="#03ABEF" stroke="#263238" stroke-linecap="round" stroke-linejoin="round" stroke-miterlimit="10" d="
					M293.681,468.731c0.013-0.063,0.022-0.232,0.026-0.496c-0.361,0.173-0.724,0.375-1.066,0.614
					c-1.648,1.154-7.749,1.648-10.222,1.813c-2.473,0.165-8.408,2.803-15.662,2.308c-3.11-0.212-4.612-0.666-5.315-1.116
					c-1.135,1.842,2.94,3.058,6.083,3.058c3.253,0,10.684-1.626,12.3-1.951s7.157,0,10.054-0.977
					C292.777,471.009,293.397,470.032,293.681,468.731z"/>
			</g>
		</g>
		<path fill="#263238" stroke="#263238" stroke-linecap="round" stroke-linejoin="round" stroke-miterlimit="10" d="
			M287.801,358.677c0,0,5.028,46.723,5.799,52.341c0.77,5.619,3.702,41.695,4.359,43.766c0.657,2.07,1.113,7.098,1.113,7.098
			l-1.08,3.252c0,0-1.098,2.662-4.829,6.21c-3.731,3.549-7.251,4.437-5.43,5.915s3.042,2.661,11.58,1.479
			c8.538-1.184,11.448-2.662,15.836-4.141s2.605-1.773,2.559-3.253c-0.048-1.479,0.154-4.436,0.154-4.436
			s-0.059-20.404-1.135-26.318c-1.075-5.914-0.701-31.05-0.204-34.007s-0.112-31.641-0.112-31.641l0.223-51.66l-29.103-3.844"/>
		<g>
			<path fill="#03ABEF" stroke="#263238" stroke-linecap="round" stroke-linejoin="round" stroke-miterlimit="10" d="
				M317.708,471.343c0,0-8.623-1.479-12.19-2.069c-3.567-0.592-7.525-4.141-7.525-4.141s-1.098,2.662-4.829,6.21
				c-3.731,3.549-7.251,4.437-5.43,5.915s3.042,2.661,11.58,1.479c8.538-1.184,11.448-2.662,15.836-4.141
				S317.755,472.821,317.708,471.343z"/>
			<path fill="#03ABEF" stroke="#263238" stroke-linecap="round" stroke-linejoin="round" stroke-miterlimit="10" d="
				M317.708,471.343c0,0-0.13-0.021-0.36-0.062c-2.219,0.758-4.367,1.543-5.252,2.02c-2.144,1.154-13.684,3.957-18.465,4.122
				c-2.64,0.091-4.873-0.572-6.348-1.184c-0.114,0.335,0.009,0.659,0.451,1.019c1.821,1.479,3.042,2.661,11.58,1.479
				c8.538-1.184,11.448-2.662,15.836-4.141S317.755,472.821,317.708,471.343z"/>
		</g>
		<path fill="#03ABEF" stroke="#263238" stroke-linecap="round" stroke-linejoin="round" stroke-miterlimit="10" d="
			M283.322,248.563c0,0,10.181-6.563,20.755-5.136s9.557,5.029,9.557,5.029s-9.313,21.484-12.015,36.501
			c-2.702,15.017-4.009,34.98-4.009,34.98s-0.97,2.827-14.111,0.707s-11.383-7.95-11.383-7.95s3.844-34.628,7.654-42.578
			C283.579,262.166,283.322,248.563,283.322,248.563z"/>
		<path fill="#FFFFFF" stroke="#263238" stroke-linecap="round" stroke-linejoin="round" stroke-miterlimit="10" d="
			M292.096,249.514c0,0-12.79,34.501-14,46.153c-1.211,11.651-3.151,89.679-3.132,90.254c0.018,0.575-0.271,5.034-0.271,5.034
			s-9.013-7.479-10.808-9.638c-1.795-2.157-1.795-2.157-1.795-2.157s2.25-54.725,2.253-63.644
			c0.004-8.918,5.775-39.988,5.775-39.988l-0.236-2.877c0,0-13.418-1.294-19.385-3.452c-5.966-2.157-12.666-4.747-14.182-7.192
			c-1.517-2.445-5.687-15.966-5.872-17.261s-1.917-10.5-1.917-10.5s15.158-7.336,16.146-7.912c0.988-0.575,2.794-2.589,2.794-2.589
			s1.203,19.707,1.217,20.138c0.014,0.432,7.82,6.186,16.298,5.898c8.478-0.288,13.699-3.453,18.85-4.315
			c5.151-0.863,9.085,0.719,9.085,0.719L292.096,249.514z"/>
		<path fill="none" stroke="#263238" stroke-linecap="round" stroke-linejoin="round" stroke-miterlimit="10" d="M248.575,249.493
			c0,0-3.485,7.904-6.626,9.14"/>
		<path fill="none" stroke="#263238" stroke-linecap="round" stroke-linejoin="round" stroke-miterlimit="10" d="M245.759,250.683
			c0,0-3.272,2.65-5.883,3.887"/>
		<path fill="none" stroke="#263238" stroke-linecap="round" stroke-linejoin="round" stroke-miterlimit="10" d="M229.658,238.846
			c0,0,14.66-5.653,18.059-9.894"/>
		<path fill="#263238" stroke="#263238" stroke-linecap="round" stroke-linejoin="round" stroke-miterlimit="10" d="
			M299.758,199.224c0,0-0.737-2.382-4.802-1.191s-18.823,11.514-18.449,14.955c0.374,3.441,5.793,11.514,6.224,12.573
			s2.942,9.264,2.902,12.176c-0.04,2.911-1.185,4.367-2.239,4.5c-1.055,0.132-2.784-0.132-2.784-0.132s1.62,5.161,5.236,6.485
			c3.615,1.323,5.579,0.662,7.386-0.794c1.807-1.456,2.84-2.25,3.921-5.691s-4.557-26.733-4.557-26.733s13.948,18.263,17.931,18.661
			c3.983,0.397,9.704-11.117,8.527-14.823s-1.532-10.72-4.729-15.484C311.131,198.959,304.028,196.18,299.758,199.224z"/>
		<g>
			<path fill="#FFFFFF" stroke="#263238" stroke-linecap="round" stroke-linejoin="round" stroke-miterlimit="10" d="
				M289.052,207.958c0,0-3.403,1.191-4.407,2.912c-1.004,1.72-2.428,6.882-2.037,10.852c0.392,3.97,1.579,12.175,2.325,14.822
				s3.162,3.706,4.75,3.706c1.588,0,3.556-0.529,3.556-0.529l0.733,2.25c0,0-2.556,7.014-1.877,7.543s3.294,3.706,6.979,3.043
				c3.685-0.661,7.392-4.764,8.528-6.484c1.136-1.72,1.181-16.94,1.651-18.793c0.471-1.853-0.815-0.662-5.334-5.426
				c-0.615-0.648-3.842-3.121-4.622-3.838C294.347,213.466,289.052,207.958,289.052,207.958z"/>
			<path fill="#FFFFFF" stroke="#263238" stroke-linecap="round" stroke-linejoin="round" stroke-miterlimit="10" d="
				M305.906,222.352l-7.063,2.149c0,0-9.426-0.927-11.552-1.191s-3.949,0.662-3.949,0.662l-0.446,0.294
				c0.523,4.243,1.428,10.116,2.038,12.279c0.746,2.647,3.162,3.706,4.75,3.706c1.315,0,2.875-0.359,3.377-0.484l0.179-0.045
				l7.459-2.647l7.655-0.662l0.214-1.588l-7.519,0.794l-0.978-9.926l6.987-2.212C306.716,223.146,306.333,222.772,305.906,222.352z"
				/>
			<path fill="#263238" d="M293.697,220.487c0.024,0.755-0.344,1.368-0.823,1.368c-0.478,0-0.885-0.612-0.909-1.368
				c-0.024-0.755,0.344-1.367,0.822-1.367C293.266,219.12,293.673,219.732,293.697,220.487z"/>
			<path fill="#263238" d="M285.268,220.605c0.021,0.65-0.286,1.177-0.685,1.177s-0.739-0.527-0.76-1.177
				c-0.021-0.65,0.286-1.177,0.685-1.177C284.907,219.428,285.247,219.955,285.268,220.605z"/>
			<path fill="none" stroke="#263238" stroke-linecap="round" stroke-linejoin="round" stroke-miterlimit="10" d="M290.038,218.149
				c0,0,1.401-1.721,5.413-0.397"/>
			<path fill="none" stroke="#263238" stroke-linecap="round" stroke-linejoin="round" stroke-miterlimit="10" d="M283.822,218.281
				c0,0,1.221,0.926,1.767,1.456c0.546,0.529,0.225,2.912,0.225,2.912"/>
			<polygon fill="#263238" stroke="#263238" stroke-linecap="round" stroke-linejoin="round" stroke-miterlimit="10" points="
				300.699,237.074 293.973,241.971 293.239,239.721 			"/>
			
				<line fill="#FFFFFF" stroke="#263238" stroke-linecap="round" stroke-linejoin="round" stroke-miterlimit="10" x1="293.973" y1="241.971" x2="295.639" y2="248.588"/>
		</g>
		<path fill="#FFFFFF" stroke="#263238" stroke-linecap="round" stroke-linejoin="round" stroke-miterlimit="10" d="
			M307.603,246.073c0,0-5.326,9.461-8.735,19.817c-3.41,10.357-5.788,26.036-8.563,51.784c-2.776,25.748-0.905,78.891-0.905,78.891
			s7.576,3.021,16.75,2.014s20.433-4.315,20.433-4.315s-0.253-30.495-0.674-43.729c-0.422-13.233-0.885-49.259-0.885-49.259
			s4.363-25.604,5.024-31.933c0.662-6.329,2.939-16.111,1.274-18.7c-1.664-2.589-10.999-6.617-10.999-6.617l-9.612-3.74
			L307.603,246.073z"/>
		
			<line fill="none" stroke="#263238" stroke-linecap="round" stroke-linejoin="round" stroke-miterlimit="10" x1="310.037" y1="323.532" x2="299.784" y2="324.036"/>
		<polyline fill="none" stroke="#263238" stroke-linecap="round" stroke-linejoin="round" stroke-miterlimit="10" points="
			297.609,319.938 321.97,319.459 321.266,322.98 312.564,323.408 		"/>
		<path fill="#263238" stroke="#263238" stroke-linecap="round" stroke-linejoin="round" stroke-miterlimit="10" d="
			M305.381,217.884c0,0,0.918,20.513-1.304,25.542c-2.222,5.029-4.967,6.088-4.967,6.088s3.303,3.97,5.813,3.838
			c2.51-0.133,5.504-1.721,8.711-4.897s4.451-5.691,4.451-5.691l5.382,2.779c0,0-0.221-2.779-2.01-13.234
			s-1.818-11.381-2.402-13.102c-0.584-1.72-2.362-7.676-2.362-7.676"/>
		<path fill="#92E3A9" stroke="#263238" stroke-linecap="round" stroke-linejoin="round" stroke-miterlimit="10" d="
			M236.388,196.559c0,0,1.26-5.61,1.209-7.192c-0.05-1.582,1.973-1.294,2.635,1.438c0.663,2.733,0.151,4.747,0.151,4.747
			L236.388,196.559z"/>
		<g>
			<polygon fill="#FFFFFF" stroke="#263238" stroke-linecap="round" stroke-linejoin="round" stroke-miterlimit="10" points="
				257.411,234.106 256.697,234.356 247.882,212.115 249.31,211.615 			"/>
			<polygon fill="#FFFFFF" stroke="#263238" stroke-linecap="round" stroke-linejoin="round" stroke-miterlimit="10" points="
				252.95,219.002 250.027,220.025 239.401,191.928 242.325,190.904 			"/>
			<polygon fill="#FFFFFF" stroke="#263238" stroke-linecap="round" stroke-linejoin="round" stroke-miterlimit="10" points="
				254.124,218.591 248.853,220.437 240.395,198.071 245.667,196.225 			"/>
			<polygon fill="#FFFFFF" stroke="#263238" stroke-linecap="round" stroke-linejoin="round" stroke-miterlimit="10" points="
				254.124,218.591 248.853,220.437 247.02,215.592 252.292,213.746 			"/>
			<polygon fill="#FFFFFF" stroke="#263238" stroke-linecap="round" stroke-linejoin="round" stroke-miterlimit="10" points="
				243.572,190.945 238.473,192.73 238.154,191.887 243.253,190.102 			"/>
		</g>
		<g>
			<path fill="#03ABEF" stroke="#263238" stroke-linecap="round" stroke-linejoin="round" stroke-miterlimit="10" d="
				M240.895,193.538c0,0-7.082,3.453-6.461,4.891c0.621,1.438,3.173,13.809,3.173,13.809s-1.134,5.035-1.808,6.473
				s1.274,3.884,4.021,4.315c2.747,0.431,6.553-2.014,6.553-2.014s0.089-1.726,0.294-4.315c0.206-2.589-2.21-6.186-2.21-6.186
				l3.077-2.733h3.596c0,0,0.822-1.294-0.05-1.583c-0.873-0.288-1.601-0.575-1.601-0.575s-1.208-6.329-1.51-6.761
				c-0.301-0.431-0.217-2.301-1.971-3.165C244.245,194.833,240.895,193.538,240.895,193.538z"/>
			<path fill="none" stroke="#263238" stroke-linecap="round" stroke-linejoin="round" stroke-miterlimit="10" d="M247.969,198.86
				c0,0-5.112-2.445-6.263-2.445c-1.151,0-3.519,2.445-3.519,2.445"/>
			<polyline fill="none" stroke="#263238" stroke-linecap="round" stroke-linejoin="round" stroke-miterlimit="10" points="
				248.353,201.881 242.836,200.298 239.597,202.456 			"/>
			<polyline fill="none" stroke="#263238" stroke-linecap="round" stroke-linejoin="round" stroke-miterlimit="10" points="
				249.479,205.621 245.141,204.901 242.319,206.627 			"/>
			<path fill="none" stroke="#263238" stroke-linecap="round" stroke-linejoin="round" stroke-miterlimit="10" d="M244.457,210.511
				c0,0,2.838,3.309-0.568,4.747"/>
		</g>
		<polygon fill="#FFFFFF" stroke="#263238" stroke-linecap="round" stroke-linejoin="round" stroke-miterlimit="10" points="
			260.615,239.136 255.869,239.136 255.759,235.684 260.505,235.684 		"/>
		<path fill="#FFFFFF" stroke="#263238" stroke-linecap="round" stroke-linejoin="round" stroke-miterlimit="10" d="
			M279.004,251.938l6.047,9.206l-9.08,8.486l-4.403-11.795C271.568,257.836,278.456,252.802,279.004,251.938z"/>
		<g>
			<path fill="#03ABEF" stroke="#263238" stroke-linecap="round" stroke-linejoin="round" stroke-miterlimit="10" d="
				M279.004,251.938c0,0-3.501-6.042-5.296-8.199s-8.679-6.042-9.853-6.761c-1.173-0.719-5.888,0.288-8.747,0.863
				c-2.859,0.575-5.77,4.027-5.77,4.027l-1.114,1.151c0,0-1.447-0.288-0.984,0.719c0.464,1.007,1.624,1.294,3.229,2.014
				c1.605,0.719,5.103,2.158,5.103,2.158s-7.93-0.576-8.357-0.432c-0.427,0.144-0.399,1.007,1.359,2.014
				c1.758,1.007,11.001,2.158,11.001,2.158s7.005,3.165,8.889,3.597c1.883,0.431,1.883,0.431,1.883,0.431l1.22,2.158
				C271.568,257.836,277.114,255.822,279.004,251.938z"/>
			<path fill="none" stroke="#263238" stroke-linecap="round" stroke-linejoin="round" stroke-miterlimit="10" d="M248.225,243.02
				c0,0,5.174-0.144,5.605-0.144s5.391,2.158,5.391,2.158"/>
			<path fill="none" stroke="#263238" stroke-linecap="round" stroke-linejoin="round" stroke-miterlimit="10" d="M249.339,241.869
				c0,0,6.868-1.151,7.299-1.151s5.188,0.288,5.188,0.288"/>
		</g>
		<g>
			<path fill="#FFFFFF" stroke="#263238" stroke-linecap="round" stroke-linejoin="round" stroke-miterlimit="10" d="
				M329.271,249.493c1.447,0.288,4.23,1.871,4.317,4.603c0.087,2.733-2.856,18.7-4.909,22.008
				c-2.052,3.309-25.151,27.762-27.012,28.05s-8.647-5.034-14.283-10.356c-5.635-5.322-17.503-21.146-17.503-21.146l13.968-13.09
				l13.909,16.687c0,0,0.098-1.438,1.078-2.302s2.247-1.727,2.247-1.727s9.722-15.391,13.384-17.836s6.521-3.021,6.521-3.021"/>
			<path fill="#FFFFFF" stroke="#263238" stroke-linecap="round" stroke-linejoin="round" stroke-miterlimit="10" d="
				M272.705,275.771c0,0,9.133-7.244,14.27-12.367"/>
			<path fill="#FFFFFF" stroke="#263238" stroke-linecap="round" stroke-linejoin="round" stroke-miterlimit="10" d="
				M309.555,283.759c-0.476,1.578-1.959,3.277-1.959,3.277"/>
			<path fill="#FFFFFF" stroke="#263238" stroke-linecap="round" stroke-linejoin="round" stroke-miterlimit="10" d="
				M299.229,277.255c0,0,5.48,1.86,8.486,3.52"/>
			<path fill="#FFFFFF" stroke="#263238" stroke-linecap="round" stroke-linejoin="round" stroke-miterlimit="10" d="
				M299.48,276.104c0,0,7.035-0.431,9.405,1.727"/>
		</g>
	</g>
</g>
<g id="Character_2_1_">
	<g>
		<path fill="#FFFFFF" stroke="#263238" stroke-linecap="round" stroke-linejoin="round" stroke-miterlimit="10" d="
			M127.693,311.767c0,0,4.126,20.207,6.637,29.891c2.511,9.685,2.869,16.14,2.869,16.14l-16.677-0.717
			c0,0-1.255-48.957-1.076-53.261c0.18-4.304,0.18-24.209,0.18-24.209S125.718,303.933,127.693,311.767z"/>
		<path fill="#263238" stroke="#263238" stroke-linecap="round" stroke-linejoin="round" stroke-miterlimit="10" d="
			M122.315,312.068c0,0,2.332,12.912,2.332,30.665c0,17.754-4.483,54.337-4.483,54.337s-1.435,14.884-1.614,19.009
			c-0.179,4.124-2.511,35.687-2.511,35.687l1.614,4.124l0.358,3.049c0,0,5.739,3.766,9.146,4.662
			c3.407,0.897,6.276,0.538,6.276,1.435c0,0.897-0.717,3.587-0.896,4.125c-0.18,0.538-6.097,1.614-11.119,1.973
			c-5.021,0.358-13.987-1.614-13.987-1.614s-5.739,1.076-6.456-0.179c-0.717-1.256-0.538-5.201-0.538-5.739
			c0-0.537-0.358-8.966-0.358-10.222c0-1.255,0.896-6.097,0.896-6.097l-0.896-33.714l-1.076-29.41l-5.559-70.476L122.315,312.068z"
			/>
		<path fill="#263238" stroke="#263238" stroke-linecap="round" stroke-linejoin="round" stroke-miterlimit="10" d="M70.709,316.025
			l3.389,79.642c0,0-0.339,22.029-0.339,24.063s-1.695,18.301-1.355,21.351c0.339,3.05-0.678,16.945-0.678,16.945
			s-0.678,14.572-0.678,17.283c0,2.712,1.695,4.406,3.389,5.084s7.794,0.678,9.828,0c2.033-0.678,4.745-6.778,4.406-11.522
			c-0.339-4.745-1.356-9.15-1.356-9.15s1.356-4.745,1.356-7.795s0.339-9.15,0.678-10.845s8.473-59.646,8.473-59.646l3.728-22.028
			l2.372-46.43L70.709,316.025z"/>
		<path fill="#03ABEF" stroke="#263238" stroke-linecap="round" stroke-linejoin="round" stroke-miterlimit="10" d="M92.547,229.757
			c0,0,7.913-0.357,11.488-0.448s13.976,8.518,13.976,8.518l3.586,45.011c0,0,1.076,28.154,0.717,29.23
			c-0.358,1.076-16.498,2.869-24.209,2.69c0,0-3.228,0.358-4.663-1.076S92.547,229.757,92.547,229.757z"/>
		<g>
			<path fill="#FFFFFF" stroke="#263238" stroke-linecap="round" stroke-linejoin="round" stroke-miterlimit="10" d="
				M99.491,235.204c0,0,1.842,13.631,2.947,17.439c1.105,3.807,1.228,48.999,1.228,48.999l1.597,44.456l-0.737,17.93
				c0,0-10.562,1.842-22.596-0.246c-12.035-2.088-19.526-4.544-19.526-4.544s-0.614-15.842,0.982-24.561
				c1.597-8.72,4.544-41.877,4.544-41.877l-3.07-28.859c0,0-0.982-24.438-0.982-26.771c0-2.333,7.491-9.088,9.825-9.579
				c2.333-0.491,18.421-1.105,18.421-1.105L99.491,235.204z"/>
			
				<line fill="none" stroke="#263238" stroke-linecap="round" stroke-linejoin="round" stroke-miterlimit="10" x1="78.043" y1="321.978" x2="73.084" y2="321.672"/>
			<polyline fill="none" stroke="#263238" stroke-linecap="round" stroke-linejoin="round" stroke-miterlimit="10" points="
				70.709,316.025 97.762,318.255 97.762,323.19 80.306,322.116 			"/>
			<path fill="none" stroke="#263238" stroke-linecap="round" stroke-linejoin="round" stroke-miterlimit="10" d="M75.618,291.807
				c4.033-5.465,10.541-14.737,14.431-22.627"/>
			<path fill="none" stroke="#263238" stroke-linecap="round" stroke-linejoin="round" stroke-miterlimit="10" d="M72.051,296.516
				c0,0,0.649-0.823,1.72-2.237"/>
			<path fill="none" stroke="#263238" stroke-linecap="round" stroke-linejoin="round" stroke-miterlimit="10" d="M86.143,271.387
				c0,0-7.641,8.319-11.376,11.206"/>
		</g>
		<path fill="none" stroke="#263238" stroke-linecap="round" stroke-linejoin="round" stroke-miterlimit="10" d="M93.474,219.853
			c0,0,3.93-0.123,6.018,0.982c2.088,1.105-1.105,5.035-1.597,5.772s-1.596,2.456-3.438-0.491
			C92.614,223.169,93.474,219.853,93.474,219.853z"/>
		<polygon fill="#A3A3A3" stroke="#263238" stroke-linecap="round" stroke-linejoin="round" stroke-miterlimit="10" points="
			162.97,237.888 164.445,241.872 164.298,243.052 162.527,243.495 161.386,240.374 159.871,239.068 		"/>
		<g>
			<path fill="#FFFFFF" stroke="#263238" stroke-linecap="round" stroke-linejoin="round" stroke-miterlimit="10" d="
				M145.392,251.158c0,0-0.849,4.986-1.273,9.337c-0.424,4.351-0.53,5.412-0.53,5.412l10.292-11.672L145.392,251.158z"/>
			<polygon fill="#A3A3A3" stroke="#263238" stroke-linecap="round" stroke-linejoin="round" stroke-miterlimit="10" points="
				145.392,251.158 146.739,244.97 147.624,239.363 153.969,236.855 157.363,240.396 152.39,254.251 			"/>
			<path fill="#FFFFFF" stroke="#263238" stroke-linecap="round" stroke-linejoin="round" stroke-miterlimit="10" d="
				M114.327,234.636c0,0,1.227,22.685,1.472,28.939s8.093,32.495,8.829,35.315c0.736,2.82,3.066,12.876,3.066,12.876
				s-1.472-32.985-1.594-33.354s0.858-9.319,0.858-9.319s6.744,1.962,10.423,2.207s6.867-1.349,6.867-1.349l-0.245-7.971
				l1.39-10.823c0,0-7.767,0.646-8.257,0.522c-0.491-0.122-2.82-1.839-2.82-1.839s-0.491-3.556-3.556-8.093
				s-6.376-9.565-8.461-10.546s-3.556-1.594-3.556-1.594l-4.169,4.169L114.327,234.636z"/>
			<path fill="#FFFFFF" stroke="#263238" stroke-linecap="round" stroke-linejoin="round" stroke-miterlimit="10" d="
				M114.419,238.449l5.722,2.878c0,0-0.63-8.355-1.418-9.773c-0.788-1.419-5.675-5.675-5.675-5.675L114.419,238.449z"/>
			<path fill="#FFFFFF" stroke="#263238" stroke-linecap="round" stroke-linejoin="round" stroke-miterlimit="10" d="
				M125.717,255.021c-0.237-1.245-0.516-2.291-0.845-2.972"/>
			<path fill="#FFFFFF" stroke="#263238" stroke-linecap="round" stroke-linejoin="round" stroke-miterlimit="10" d="
				M126.957,269.094c0,0-0.158-5.796-0.75-10.791"/>
			<path fill="none" stroke="#263238" stroke-linecap="round" stroke-linejoin="round" stroke-miterlimit="10" d="M133.211,250.7
				c0,0-3.434-0.368-5.396,3.924"/>
			<path fill="none" stroke="#263238" stroke-linecap="round" stroke-linejoin="round" stroke-miterlimit="10" d="M137.135,251.681
				c0,0-3.556,2.575-4.66,5.641"/>
		</g>
		<path fill="#CFCFCF" stroke="#263238" stroke-linecap="round" stroke-linejoin="round" stroke-miterlimit="10" d="M99.491,217.397
			c0,0-0.491,6.018-0.982,6.877c-0.491,0.86-1.965,1.842-1.351,3.93c0.614,2.087,3.315,8.105,7.982,9.333
			c4.667,1.228,8.965-1.351,8.965-1.351l1.597-3.562c0,0-6.14-1.597-9.21-5.035S99.491,217.397,99.491,217.397z"/>
		<polygon fill="#263238" stroke="#263238" stroke-linecap="round" stroke-linejoin="round" stroke-miterlimit="10" points="
			105.142,230.365 110.416,237.354 114.105,236.187 114.327,234.636 		"/>
		<path fill="#CFCFCF" stroke="#263238" stroke-linecap="round" stroke-linejoin="round" stroke-miterlimit="10" d="
			M102.316,197.994c0,0-3.316,4.053-3.684,8.351c-0.369,4.298,0.491,11.912,0.859,13.14c0.369,1.228,2.825,8.105,4.544,9.824
			s6.754,5.526,8.965,5.526s5.895-2.088,8.105-5.035s5.158-13.017,5.403-14.737c0.246-1.719,0.614-12.157-0.982-14.736
			c-1.596-2.579-6.14-7-12.403-6.509S105.018,195.538,102.316,197.994z"/>
		<path fill="#263238" stroke="#263238" stroke-linecap="round" stroke-linejoin="round" stroke-miterlimit="10" d="
			M126.099,201.908c-0.155-0.654-0.341-1.207-0.573-1.581c-1.596-2.579-6.14-7-12.403-6.509s-8.105,1.719-10.807,4.175
			c0,0-3.316,4.053-3.684,8.351c-0.151,1.765-0.094,4.087,0.05,6.299c1.527-0.77,6.827-3.511,6.827-4.458
			c0-1.105-2.456-5.281-0.246-6.631c2.21-1.351,7-1.842,9.333-0.369c2.333,1.474,4.053,3.684,5.772,2.947
			C121.871,203.49,124.874,202.284,126.099,201.908z"/>
		<path fill="#CFCFCF" stroke="#263238" stroke-linecap="round" stroke-linejoin="round" stroke-miterlimit="10" d="M102.07,215.063
			c0,0-1.842-5.771-4.053-5.035s-0.737,5.28,0.368,7.368c1.105,2.088,2.948,0.246,2.948,0.246"/>
		<path fill="none" stroke="#263238" stroke-linecap="round" stroke-linejoin="round" stroke-miterlimit="10" d="M116.07,223.783
			c0.491,0,3.439,0.491,3.439-0.123c0-0.614,0.737-6.877,1.105-7.614c0.369-0.737,2.21-2.333,2.21-2.333s1.105-1.351,3.07-1.105"/>
		
			<line fill="none" stroke="#263238" stroke-linecap="round" stroke-linejoin="round" stroke-miterlimit="10" x1="117.912" y1="227.713" x2="114.842" y2="227.467"/>
		<path fill="none" stroke="#263238" stroke-linecap="round" stroke-linejoin="round" stroke-miterlimit="10" d="M118.281,213.958
			c0,0-3.316-2.456-7.123-1.842"/>
		<path fill="none" stroke="#263238" stroke-linecap="round" stroke-linejoin="round" stroke-miterlimit="10" d="M120.614,216.046
			c0,0-4.421-1.72-7.491-2.088c-3.07-0.369-5.895-0.369-5.895-0.369l-0.614,3.685c0,0,4.79,3.193,8.105,3.315
			c3.315,0.123,4.421-1.351,4.421-1.351h1.228c0,0,1.228,1.351,3.316,1.596c2.087,0.246,3.315-1.351,3.315-1.351l0.369-3.316
			c0,0,0.123-0.737-1.842-0.982C122.723,214.836,120.614,216.046,120.614,216.046z"/>
		
			<line fill="none" stroke="#263238" stroke-linecap="round" stroke-linejoin="round" stroke-miterlimit="10" x1="107.228" y1="213.59" x2="100.474" y2="211.134"/>
		
			<line fill="none" stroke="#263238" stroke-linecap="round" stroke-linejoin="round" stroke-miterlimit="10" x1="106.614" y1="217.274" x2="102.316" y2="214.45"/>
		
			<ellipse transform="matrix(0.9967 0.0806 -0.0806 0.9967 17.856 -8.5479)" fill="#263238" cx="114.781" cy="216.844" rx="0.675" ry="1.167"/>
		
			<ellipse transform="matrix(0.9967 0.0806 -0.0806 0.9967 17.93 -9.1912)" fill="#263238" cx="122.824" cy="217.52" rx="0.676" ry="1.167"/>
		<path fill="#FFFFFF" stroke="#263238" stroke-linecap="round" stroke-linejoin="round" stroke-miterlimit="10" d="M94.088,220.344
			l5.403,14.859l-7.982,4.298c0,0-1.719-10.315-1.596-11.789c0.123-1.474,0.737-4.421,1.474-5.035
			C92.123,222.063,92.86,218.257,94.088,220.344z"/>
		<polygon fill="#A3A3A3" stroke="#263238" stroke-linecap="round" stroke-linejoin="round" stroke-miterlimit="10" points="
			161.347,236.708 164.593,237.593 165.478,240.839 163.265,240.101 		"/>
		<path fill="#A3A3A3" stroke="#263238" stroke-linecap="round" stroke-linejoin="round" stroke-miterlimit="10" d="
			M157.805,237.445l3.542-0.738l1.918,3.394c-1.879,0.273-1.879,0.273-1.879,0.273L157.805,237.445z"/>
		<path fill="#A3A3A3" stroke="#263238" stroke-linecap="round" stroke-linejoin="round" stroke-miterlimit="10" d="
			M153.969,236.855c0,0,2.509-0.443,3.247-0.443s2.803,3.836,2.803,3.836l-2.656,0.147L153.969,236.855z"/>
	</g>
	<g>
		<path fill="#CFCFCF" stroke="#263238" stroke-linecap="round" stroke-linejoin="round" stroke-miterlimit="10" d="
			M107.105,240.607l14.982-4.421c0,0,11.421-5.772,12.281-6.018c0.859-0.246,5.771,2.702,7.368,3.93s2.825,2.579,4.298,2.947
			s4.667,0.368,4.421,1.474s0.491,1.474-1.719,1.842c-2.21,0.368-6.14,0.246-7.123,0.614c-0.982,0.369-3.193,1.474-6.263,2.088
			c-3.07,0.614-6.386,0.737-6.386,0.737l-23.579,8.473C105.386,252.273,106.859,239.993,107.105,240.607z"/>
		<path fill="#A3A3A3" stroke="#263238" stroke-linecap="round" stroke-linejoin="round" stroke-miterlimit="10" d="
			M146.035,237.046c-1.474-0.368-2.702-1.719-4.298-2.947s-6.509-4.175-7.368-3.93c-0.86,0.246-12.281,6.017-12.281,6.017
			l-7.668,2.263c-0.814,1.132-1.79,3.149-1.174,5.843c0.391,1.712,2.013,2.931,3.82,3.785l11.899-4.276c0,0,3.316-0.123,6.386-0.737
			c3.07-0.614,5.281-1.719,6.263-2.088c0.982-0.368,4.912-0.246,7.123-0.614c2.21-0.369,1.474-0.737,1.719-1.842
			S147.508,237.414,146.035,237.046z"/>
	</g>
	<path fill="#FFFFFF" stroke="#263238" stroke-linecap="round" stroke-linejoin="round" stroke-miterlimit="10" d="M152.42,240.116
		h-23.585c-1.149,0-2.081-0.932-2.081-2.081v-0.136c0-1.149,0.932-2.081,2.081-2.081h23.585V240.116z"/>
	<path fill="#03ABEF" stroke="#263238" stroke-linecap="round" stroke-linejoin="round" stroke-miterlimit="10" d="M126.779,238.216
		c0.125,1.068,1.022,1.9,2.124,1.9h23.517v-1.9H126.779z"/>
	<path fill="#A3A3A3" stroke="#263238" stroke-linecap="round" stroke-linejoin="round" stroke-miterlimit="10" d="M135.964,231.028
		c0,0,2.457-1.228,3.316-0.614c0.859,0.614,4.053,5.035,4.053,5.649s-0.86,1.105-1.597,1.105s-2.088-1.105-2.088-1.105
		L135.964,231.028z"/>
	<path fill="#A3A3A3" stroke="#263238" stroke-linecap="round" stroke-linejoin="round" stroke-miterlimit="10" d="M139.28,230.415
		c0,0,3.193-0.491,3.684-0.123c0.491,0.369,3.07,6.754,3.07,6.754s-1.228,0.123-1.965,0s-0.737-0.982-0.737-0.982L139.28,230.415z"
		/>
	<path fill="#A3A3A3" stroke="#263238" stroke-linecap="round" stroke-linejoin="round" stroke-miterlimit="10" d="M143.824,231.397
		c0,0,1.351,0,1.965,0.491c0.614,0.491,2.702,3.193,2.824,3.807c0.123,0.614-0.246,0.86-0.982,0.86s-1.842-0.982-1.842-0.982
		L143.824,231.397z"/>
	<path fill="#A3A3A3" stroke="#263238" stroke-linecap="round" stroke-linejoin="round" stroke-miterlimit="10" d="M127.614,233.853
		c0,0,6.14-3.193,6.754-3.684c0.614-0.491,5.28,4.667,5.771,5.035c0.492,0.369,0.246,1.719-0.737,1.719
		c-0.982,0-1.596-0.123-3.315-1.351s-2.333-1.597-2.333-1.597"/>
	<polygon fill="#FFFFFF" stroke="#263238" stroke-linecap="round" stroke-linejoin="round" stroke-miterlimit="10" points="
		161.386,240.374 147.14,240.374 152.39,249.461 152.39,254.251 156.136,254.251 156.043,249.461 	"/>
	<path fill="#FFFFFF" stroke="#263238" stroke-linecap="round" stroke-linejoin="round" stroke-miterlimit="10" d="M159.606,261.396
		v-7.313h-8.899v7.313c-4.109,1.739-6.994,5.816-6.994,10.569c0,4.997,7.12,12.259,10.128,15.103c0.74,0.7,1.891,0.7,2.631,0
		c3.007-2.844,10.128-10.105,10.128-15.103C166.6,267.212,163.716,263.135,159.606,261.396z"/>
	<path fill="#03ABEF" stroke="#263238" stroke-linecap="round" stroke-linejoin="round" stroke-miterlimit="10" d="M145.465,273.514
		c1.213,4.16,6.253,9.279,8.546,11.448c0.644,0.609,1.646,0.609,2.29,0c2.293-2.169,7.333-7.288,8.546-11.448H145.465z"/>
	
		<rect x="141.557" y="276.252" fill="#FFFFFF" stroke="#263238" stroke-linecap="round" stroke-linejoin="round" stroke-miterlimit="10" width="31.694" height="1.874"/>
	
		<rect x="180.355" y="236.049" fill="#FFFFFF" stroke="#263238" stroke-linecap="round" stroke-linejoin="round" stroke-miterlimit="10" width="1.874" height="75.957"/>
	
		<line fill="none" stroke="#263238" stroke-linecap="round" stroke-linejoin="round" stroke-miterlimit="10" x1="173.251" y1="277.189" x2="189.333" y2="277.189"/>
	
		<circle fill="#263238" stroke="#263238" stroke-linecap="round" stroke-linejoin="round" stroke-miterlimit="10" cx="181.214" cy="277.346" r="2.81"/>
	<g>
		<path fill="#FFFFFF" stroke="#263238" stroke-linecap="round" stroke-linejoin="round" stroke-miterlimit="10" d="M84.754,237.169
			l1.474,8.105l20.877-4.667l-0.982,19.895l-14.614,3.93c0,0-10.561,6.386-18.298,4.912s-9.947-4.421-9.825-6.754
			c0.123-2.334,1.105-16.825,1.105-16.825s-0.614-9.456,0.123-10.684s6.263-5.895,8.842-5.895"/>
		
			<line fill="none" stroke="#263238" stroke-linecap="round" stroke-linejoin="round" stroke-miterlimit="10" x1="86.228" y1="245.274" x2="74.07" y2="248.344"/>
		<path fill="none" stroke="#263238" stroke-linecap="round" stroke-linejoin="round" stroke-miterlimit="10" d="M70.386,249.94
			c0,0-3.684,3.807-4.298,6.632"/>
		<path fill="none" stroke="#263238" stroke-linecap="round" stroke-linejoin="round" stroke-miterlimit="10" d="M73.088,246.133
			c0,0,5.772-2.579,11.544-1.351"/>
	</g>
	
		<line fill="#92E3A9" stroke="#03ABEF" stroke-linecap="round" stroke-linejoin="round" stroke-miterlimit="10" x1="153.067" y1="241.667" x2="153.067" y2="272.221"/>
</g>
<g id="Character_1">
	<polygon fill="#FFFFFF" stroke="#263238" stroke-linecap="round" stroke-linejoin="round" stroke-miterlimit="10" points="
		315.277,165.805 254.94,173.347 289.419,181.967 341.854,174.784 	"/>
	<path fill="#263238" stroke="#263238" stroke-linecap="round" stroke-linejoin="round" stroke-miterlimit="10" d="M341.893,42.172
		c0,0,10.843-3.711,18.145-0.825c8.865,3.505,16.906,14.227,18.556,24.742c1.649,10.516,1.031,15.052,1.031,15.052l-24.535-7.629
		c0,0-2.887-17.113-6.805-21.443c-3.917-4.33-6.186-5.773-6.186-5.773L341.893,42.172z"/>
	<path fill="#FFFFFF" stroke="#263238" stroke-linecap="round" stroke-linejoin="round" stroke-miterlimit="10" d="M308.162,81.531
		c0,0-11.14,18.134-11.917,20.207c-0.777,2.072,0.259,15.284-0.259,16.58s-6.477,11.658-6.995,12.435
		c-0.518,0.777-6.995,9.585-8.549,14.767c-1.555,5.181-2.332,18.652-2.332,18.652l16.58,4.663c0,0,9.585-12.435,10.881-14.507
		c1.295-2.072,3.367-13.73,3.886-14.507c0.518-0.777,2.85-5.44,2.85-5.44l12.953,18.393l3.108,10.88l0.259,4.404h57.253
		c0,0-4.404-79.532-4.663-83.158c-0.259-3.627-0.259-8.031-1.813-9.326c-1.555-1.295-22.021-11.399-31.347-12.694
		C338.73,61.584,311.788,74.796,308.162,81.531z"/>
	<path fill="#263238" stroke="#263238" stroke-linecap="round" stroke-linejoin="round" stroke-miterlimit="10" d="M294.883,47.945
		c0,0-9.484-7.628-9.897-8.866c-0.412-1.237,14.227-16.288,19.381-17.938c5.155-1.649,19.175-6.392,28.453,0.619
		c6.219,4.699,8.454,19.793,9.278,23.093c0.825,3.299-4.198,11.222-5.74,12.78c-3.696,3.735-2.72,1.255-2.72,1.255
		s1.244-1.252-2.055-1.665c-3.299-0.412-13.402-3.917-14.64-4.948c-1.236-1.031-20.412-10.515-20.412-10.515L294.883,47.945z"/>
	<path fill="#FFFFFF" stroke="#263238" stroke-linecap="round" stroke-linejoin="round" stroke-miterlimit="10" d="M317.77,81.141
		l-0.619,11.34l5.567,2.474l-3.505,3.505l11.34,10.309l15.67-15.257l-4.536-2.68l12.783-2.268c0,0-1.03-21.031-1.855-23.917
		c-0.825-2.887-2.268-5.155-2.887-5.567c-0.618-0.413-6.186-0.619-6.186-0.619S323.543,70.213,317.77,81.141z"/>
	<path fill="#FFFFFF" stroke="#263238" stroke-linecap="round" stroke-linejoin="round" stroke-miterlimit="10" d="M293.646,39.904
		c0,0-1.855,15.051-1.443,16.289c0.413,1.237,2.681,5.154,2.681,5.154s-1.443,10.722-0.413,11.34
		c1.031,0.618,5.361,0.618,5.361,0.618s4.124,10.103,5.979,11.34c1.855,1.237,11.958-3.505,11.958-3.505l12.371,19.175
		c0,0,3.093-4.536,7.422-16.701c4.33-12.165,5.699-21.589,5.699-21.589l-8.367-4.184l-4.136-2.062l-6.598-4.742
		c0,0,0,1.649-1.855,1.649s-4.742-3.505-4.742-3.505s-7.011-5.567-10.103-7.216c-3.093-1.649-4.742-2.887-4.742-2.887l12.371-10.928
		l-12.165,8.454L293.646,39.904z"/>
	<path fill="none" stroke="#263238" stroke-linecap="round" stroke-linejoin="round" stroke-miterlimit="10" d="M303.471,75.138
		c0,0,1.965,0.151,4.233-1.209"/>
	<path fill="none" stroke="#263238" stroke-width="2" stroke-linecap="round" stroke-linejoin="round" stroke-miterlimit="10" d="
		M299.419,53.512c0,0,3.299-2.268,7.01-0.618"/>
	<path fill="none" stroke="#263238" stroke-linecap="round" stroke-linejoin="round" stroke-miterlimit="10" d="M323.749,49.388
		l-13.608,5.361l-19.793,3.093c0,0-0.332,1.725,0.727,2.178"/>
	<path fill="none" stroke="#263238" stroke-linecap="round" stroke-linejoin="round" stroke-miterlimit="10" d="M310.141,54.749
		c0,0,0.825,7.216-1.237,9.072c-2.062,1.855-4.948,2.062-6.392,1.855c-1.443-0.206-3.917-6.186-4.536-7.629"/>
	<path fill="#FFFFFF" stroke="#263238" stroke-linecap="round" stroke-linejoin="round" stroke-miterlimit="10" d="M321.687,54.543
		c0,0,2.887-7.835,4.536-8.041c1.649-0.207,5.361,2.474,4.948,6.598c-0.412,4.124-1.855,6.186-3.093,7.01
		c-1.236,0.825-4.742,0.412-4.742,0.412"/>
	<polygon fill="#263238" stroke="#263238" stroke-linecap="round" stroke-linejoin="round" stroke-miterlimit="10" points="
		317.77,81.141 323.336,77.223 324.226,83.153 	"/>
	
		<ellipse transform="matrix(0.9896 -0.1436 0.1436 0.9896 -5.2475 44.301)" fill="#263238" cx="304.385" cy="58.516" rx="1.219" ry="1.881"/>
	<g>
		<path fill="#03ABEF" stroke="#263238" stroke-linecap="round" stroke-linejoin="round" stroke-miterlimit="10" d="
			M348.014,158.351l-18.807,1.278c0,0-14.79-2.191-16.068-1.644c-1.277,0.548-6.025,5.295-7.121,6.756
			c-1.096,1.461-3.104,6.391-3.104,6.391s4.382,2.374,5.843,2.374c1.461,0,6.025,0.365,6.573,0.365s7.486-4.017,7.486-4.017
			s-4.748,4.564-4.383,5.112s2.374,1.096,3.652,0.548s6.756-3.834,6.756-3.834s7.304,1.826,9.677,1.461
			c2.374-0.365,8.217-5.113,8.217-5.113l3.834-0.183C350.569,167.845,351.482,161.089,348.014,158.351z"/>
		<path fill="none" stroke="#263238" stroke-linecap="round" stroke-linejoin="round" stroke-miterlimit="10" d="M310.035,173.505
			c0,0,12.051-9.495,12.964-9.677c0.913-0.182,3.651-0.73,3.651-0.73"/>
		<path fill="none" stroke="#263238" stroke-linecap="round" stroke-linejoin="round" stroke-miterlimit="10" d="M305.653,172.228
			c0,0,9.495-9.86,10.773-10.59s2.738-1.096,2.738-1.096"/>
	</g>
	<polyline fill="none" stroke="#263238" stroke-linecap="round" stroke-linejoin="round" stroke-miterlimit="10" points="
		322.816,169.854 327.746,165.837 330.303,165.472 	"/>
	<path fill="#FFFFFF" stroke="#263238" stroke-linecap="round" stroke-linejoin="round" stroke-miterlimit="10" d="M366.969,90.857
		c0,0-5.44,24.352-4.146,28.497c1.296,4.145,10.881,25.388,10.881,25.388s-4.404,2.59-4.404,3.627c0,1.036,0.259,3.108,0.259,3.108
		l-23.833,6.477c0,0,2.072,1.295,3.627,6.995c1.554,5.699,1.036,9.844,1.036,9.844s27.719-2.85,38.858-5.699
		s13.73-11.917,14.249-13.73c0.518-1.813,0.518-6.736,0.518-7.772s-18.911-65.542-21.243-69.428
		c-2.331-3.886-13.212-6.995-13.212-6.995"/>
	<path fill="none" stroke="#263238" stroke-linecap="round" stroke-linejoin="round" stroke-miterlimit="10" d="M387.556,142.295
		c1.237-0.043,2.504-0.015,3.765,0.116"/>
	<path fill="none" stroke="#263238" stroke-linecap="round" stroke-linejoin="round" stroke-miterlimit="10" d="M376.035,144.483
		c0,0,3.629-1.33,8.323-1.925"/>
	<path fill="none" stroke="#263238" stroke-linecap="round" stroke-linejoin="round" stroke-miterlimit="10" d="M371.631,150.701
		c0,0,3.887-1.037,12.694,2.85"/>
	<path fill="none" stroke="#263238" stroke-linecap="round" stroke-linejoin="round" stroke-miterlimit="10" d="M312.591,101.748
		c0,0-0.912,19.72-0.912,25.563s0.628,7.069,0.628,7.069"/>
	<path fill="none" stroke="#263238" stroke-linecap="round" stroke-linejoin="round" stroke-miterlimit="10" d="M312.043,106.678
		c0,0-3.469-5.661-5.477-7.304"/>
	<path fill="none" stroke="#263238" stroke-linecap="round" stroke-linejoin="round" stroke-miterlimit="10" d="M296.889,121.103
		c0,0,5.843,8.217,12.416,11.32"/>
	<path fill="none" stroke="#263238" stroke-linecap="round" stroke-linejoin="round" stroke-miterlimit="10" d="M295.386,134.952
		c3.552,0.899,7.85,2.539,10.997,5.505"/>
	<path fill="none" stroke="#263238" stroke-linecap="round" stroke-linejoin="round" stroke-miterlimit="10" d="M288.854,133.884
		c0,0,1.314,0.064,3.298,0.394"/>
	<path fill="none" stroke="#263238" stroke-linecap="round" stroke-linejoin="round" stroke-miterlimit="10" d="M297.254,130.415
		c0,0,6.573,3.469,9.129,7.669"/>
	<path fill="none" stroke="#263238" stroke-linecap="round" stroke-linejoin="round" stroke-miterlimit="10" d="M346.829,146.874
		c0.733,1.52,1.419,2.798,1.915,3.443"/>
	<path fill="none" stroke="#263238" stroke-linecap="round" stroke-linejoin="round" stroke-miterlimit="10" d="M364.264,129.684
		c0,0-14.972,6.391-21.728,7.304c0,0,1.466,3.665,3.055,7.214"/>
	<path fill="none" stroke="#263238" stroke-linecap="round" stroke-linejoin="round" stroke-miterlimit="10" d="M330.746,141.688
		c0.782,1.768,1.382,2.968,1.382,2.968"/>
	<path fill="none" stroke="#263238" stroke-linecap="round" stroke-linejoin="round" stroke-miterlimit="10" d="M329.39,111.791
		c0,0-2.922,14.972-2.009,20.085c0.402,2.255,1.374,5.007,2.334,7.379"/>
	<path fill="#03ABEF" stroke="#263238" stroke-linecap="round" stroke-linejoin="round" stroke-miterlimit="10" d="M295.426,154.197
		c0,0-0.58,9.429-0.725,11.17s-2.031,4.207-2.031,4.207s0.29,1.451-0.726,2.756c-1.015,1.306-4.352,3.626-5.367,2.756
		c-1.015-0.871-4.932-1.886-5.367-1.886s-2.756,0.871-2.611-1.886c0.145-2.756,3.917-13.2,4.932-13.781
		c1.016-0.58,5.222-1.596,6.383-2.611C291.074,153.907,294.846,152.457,295.426,154.197z"/>
	<g>
		<path fill="#03ABEF" stroke="#263238" stroke-linecap="round" stroke-linejoin="round" stroke-miterlimit="10" d="
			M282.226,152.747c0,0-3.917,2.321-4.062,3.481c-0.145,1.16,4.207,8.413,5.513,8.994c1.305,0.58,3.481-0.726,3.626-2.176
			c0.145-1.45-3.046-10.299-3.481-10.589C283.386,152.167,282.951,152.892,282.226,152.747z"/>
		<path fill="#03ABEF" stroke="#263238" stroke-linecap="round" stroke-linejoin="round" stroke-miterlimit="10" d="
			M279.034,158.694c0,0-4.352,5.657-4.207,7.253c0.146,1.596,1.306,2.901,2.031,2.901c0.725,0,7.543,2.466,8.268,2.466
			c0.726,0,2.611-0.58,2.466-1.886s-3.917-4.207-3.917-4.207L279.034,158.694z"/>
		<path fill="#03ABEF" stroke="#263238" stroke-linecap="round" stroke-linejoin="round" stroke-miterlimit="10" d="
			M275.263,167.253l-1.596,3.917c0,0,1.596,3.336,2.321,3.481c0.726,0.145,7.688-0.725,8.559-1.015
			c0.871-0.291,1.741-0.871,1.741-1.596c0,0-2.611-1.161-3.336-1.451c-0.725-0.29-6.092-1.741-6.092-1.741L275.263,167.253z"/>
		<path fill="#03ABEF" stroke="#263238" stroke-linecap="round" stroke-linejoin="round" stroke-miterlimit="10" d="
			M275.988,174.651c0,0,3.191,1.886,3.917,1.886c0.726,0,5.948-0.725,6.673-1.45c0.726-0.726,1.596-1.741,1.161-2.176
			s-1.451-0.87-1.451-0.87l-1.741,1.596L275.988,174.651z"/>
	</g>
	<polygon fill="#FFFFFF" stroke="#263238" stroke-linecap="round" stroke-linejoin="round" stroke-miterlimit="10" points="
		279.034,139.981 288.463,165.222 290.349,167.398 290.494,164.497 280.92,139.111 	"/>
	<path fill="#03ABEF" stroke="#263238" stroke-linecap="round" stroke-linejoin="round" stroke-miterlimit="10" d="M289.439,150.252
		c0,0-1.463,8.129-0.813,8.942s3.089,2.601,4.064,1.951c0.976-0.65,3.089-8.292,3.089-9.267
		C295.78,150.903,292.528,149.765,289.439,150.252z"/>
	<path fill="none" stroke="#263238" stroke-linecap="round" stroke-linejoin="round" stroke-miterlimit="10" d="M324.226,83.153
		c0,0,1.674,1.255,2.72,2.72"/>
</g>
</svg>
